<svg width="50" height="50" viewBox="0 0 50 50" fill="none" xmlns="http://www.w3.org/2000/svg">
<g clip-path="url(#clip0)">
<path d="M49.0079 25.5742C49.0079 23.8747 48.8701 22.1661 48.5761 20.4943H24.9954V30.1213H38.499C37.9386 33.2262 36.1381 35.9729 33.5017 37.7182V43.9648H41.5579C46.2888 39.6106 49.0079 33.1803 49.0079 25.5742Z" fill="#4285F4"/>
<path d="M24.9954 50C31.738 50 37.4242 47.7861 41.5672 43.9647L33.5109 37.7181C31.2695 39.243 28.3759 40.1065 25.0046 40.1065C18.4825 40.1065 12.9524 35.7064 10.9682 29.7905H2.65479V36.23C6.89877 44.672 15.5429 50 24.9954 50Z" fill="#34A853"/>
<path d="M10.959 29.7906C9.91177 26.6857 9.91177 23.3235 10.959 20.2186V13.7792H2.65474C-0.891098 20.8433 -0.891098 29.1659 2.65474 36.23L10.959 29.7906Z" fill="#FBBC04"/>
<path d="M24.9954 9.89342C28.5596 9.8383 32.0044 11.1795 34.5857 13.6414L41.7233 6.50374C37.2037 2.25976 31.2052 -0.0735132 24.9954 -2.42633e-05C15.5429 -2.42633e-05 6.89877 5.32792 2.65479 13.7791L10.959 20.2186C12.934 14.2936 18.4733 9.89342 24.9954 9.89342Z" fill="#EA4335"/>
</g>
<defs>
<clipPath id="clip0">
<rect width="49.0079" height="50" fill="white"/>
</clipPath>
</defs>
</svg>
