<svg width="750" height="637" viewBox="0 0 750 637" fill="none" xmlns="http://www.w3.org/2000/svg">
<g opacity="0.504511">
<path fill-rule="evenodd" clip-rule="evenodd" d="M694.419 437.06C703.733 496.453 477.856 535.193 283.439 508.157C89.0212 481.121 -0.16832 375.544 92.6044 319.288C185.377 263.032 685.105 377.667 694.419 437.06Z" fill="#F2F2F2"/>
</g>
<path fill-rule="evenodd" clip-rule="evenodd" d="M414.998 189.566C418.513 187.275 423.965 188.735 427.503 190.087C428.867 190.608 432.35 192.276 434.934 194.152C434.593 192.852 434.288 191.54 434.022 190.217C432.929 184.777 432.176 179.235 431.814 173.725C431.72 172.288 431.843 170.682 431.967 169.055C432.009 168.504 432.052 167.95 432.086 167.4C431.944 167.27 431.849 167.09 431.809 166.847C431.794 166.948 431.785 167.029 431.779 167.091C431.768 167.19 431.763 167.24 431.745 167.245C431.726 167.25 431.694 167.208 431.627 167.122C431.602 167.089 431.572 167.049 431.535 167.003C428.921 163.668 426.725 159.911 426.423 155.78C426.168 152.276 429.543 145.647 434.328 150.236C436.468 152.286 435.912 166.679 432.698 167.561C433.556 172.33 434.636 177.091 435.989 181.792C436.191 181.761 436.398 181.759 436.603 181.783C436.583 180.614 436.581 179.339 436.637 178.9C437.119 175.123 440.819 167.453 446.709 168.942C451.235 170.087 448.461 174.797 446.92 176.859C444.441 180.178 441.636 181.616 438.084 183.342C438.013 184.055 437.474 184.47 436.837 184.605C439.215 192.196 442.34 199.6 446.429 206.594L446.538 206.149C447.057 204.027 447.663 201.552 448.046 201.032C450.05 198.311 454.487 194.988 458.578 196.598C467.171 199.984 457.844 209.714 450.529 210.773C450.225 211.131 449.903 211.42 449.561 211.585C450.982 213.696 452.501 215.763 454.127 217.777C456.564 220.806 459.184 223.826 461.931 226.828C462.016 224.48 463.103 219.246 463.411 218.684C465.287 215.269 470.694 211.756 475.08 214.181C480.013 216.916 475.54 222.085 472.726 224.424C471.573 225.383 465.868 228.897 463.856 228.913C470.492 235.992 477.817 242.949 485.264 249.656C484.647 246.653 483.841 238.386 483.931 237.468C484.394 232.732 488.043 225.156 495.232 227.002C502.206 228.79 499.121 236.66 496.733 240.412C495.287 242.682 493.288 244.989 490.876 246.573C490.442 246.858 489.874 247.091 489.307 247.323L489.307 247.323C488.624 247.604 487.942 247.884 487.497 248.254C487.099 248.584 486.978 248.963 486.857 249.339C486.729 249.736 486.603 250.129 486.154 250.458C490.179 254.066 494.232 257.599 498.226 261.035C500.111 262.656 502.03 264.246 503.968 265.816C505.029 265.441 506.541 265.934 506.462 267.215C506.45 267.401 506.4 267.562 506.332 267.709C507.801 268.874 509.279 270.032 510.768 271.177C510.734 270.843 510.744 270.373 510.813 269.723C509.74 271.025 509.785 269.129 509.819 267.684C509.831 267.173 509.842 266.719 509.802 266.482C509.644 265.553 509.44 264.634 509.237 263.715C508.802 261.754 508.368 259.799 508.39 257.775C508.437 253.478 511.626 246.276 518.338 248.834C524.51 251.183 522.264 257.551 519.936 261.543C518.462 264.069 516.445 266.325 514.338 268.485C513.962 268.87 513.545 269.392 513.132 269.909C512.518 270.676 511.914 271.432 511.468 271.713C517.198 276.096 523.063 280.349 528.928 284.603L528.929 284.603L528.934 284.607C531.56 286.511 534.185 288.416 536.799 290.331C536.913 289.911 537.007 289.493 537.088 289.103C536.924 289.261 536.702 289.334 536.416 289.32C536.34 288.997 536.23 288.569 536.097 288.054C534.482 281.77 529.563 262.631 542.883 266.341C552.643 269.066 545.754 285.731 538.475 291.561C542.892 294.816 547.267 298.112 551.54 301.507C554.632 303.964 557.633 306.504 560.519 309.13C559.026 305.73 557.618 301.33 558.542 297.827C559.887 292.731 566.188 287.919 572.34 290.819C580.01 294.45 574.11 299.409 568.576 304.059C565.751 306.433 563.022 308.727 562.243 310.723C571.419 319.334 579.252 328.901 584.486 339.8C590.179 351.651 595.463 367.576 592.541 380.835C593.08 375.005 590.772 367.685 589.152 362.543C588.931 361.843 588.723 361.184 588.537 360.574C586.101 352.6 582.642 344.842 578.082 337.58C570.779 325.95 561.133 316.078 549.996 307.114C547.46 307.868 544.706 309.265 542.425 310.421C541.026 311.13 539.804 311.75 538.921 312.075C534.66 313.644 526.478 315.893 523.763 310.951C521.094 306.091 527.907 303.373 532.13 302.284C536.21 301.232 539.889 301.359 543.695 302.221C537.8 297.76 531.762 293.441 525.724 289.122C524.614 288.328 523.503 287.533 522.394 286.738C520.859 287.812 519.164 289.365 517.364 291.013L517.364 291.013C511.652 296.245 504.885 302.443 498.841 297.379C489.72 289.737 507.164 281.97 514.596 282.576C515.508 282.65 516.391 282.814 517.252 283.037C509.673 277.546 502.211 271.941 495.154 265.943C493.888 266.14 491.872 267.73 489.45 269.641L489.45 269.641C484.007 273.935 476.514 279.847 470.87 275.192C466.796 271.832 468.191 266.599 472.13 263.607C476.083 260.602 481.815 260.607 486.687 261.619C488.793 262.054 490.736 262.885 492.547 263.898L492.661 263.903L492.772 263.909C485.828 257.943 478.842 251.844 472.113 245.537C471.995 245.569 471.875 245.602 471.754 245.636C471.347 246.061 470.666 246.217 470.042 246.123C469.698 246.223 469.347 246.327 468.988 246.433C463.658 248.003 456.808 250.021 451.495 249.151C447.585 248.51 444.038 245.797 447.347 242.457C450.038 239.74 457.338 240.13 460.898 240.774C462.635 241.088 464.527 241.999 466.424 242.913L466.425 242.913C467.222 243.297 468.02 243.681 468.809 244.022C469.014 243.67 469.371 243.443 469.778 243.334C463.133 236.996 456.793 230.439 451.042 223.597C449.301 223.827 447.371 224.479 445.38 225.153C440.588 226.772 435.446 228.511 431.756 224.767C426.308 219.238 436.554 216.011 441.425 216.536C443.069 216.714 444.691 217.111 446.257 217.637C442.072 212.004 438.876 205.982 436.631 199.658C436.609 199.668 436.589 199.677 436.569 199.687C436.537 199.702 436.506 199.717 436.467 199.732C436.5 199.716 436.53 199.7 436.56 199.684L436.56 199.684C436.582 199.672 436.604 199.66 436.627 199.648C436.403 199.015 436.188 198.38 435.983 197.742C435.603 197.561 435.247 197.428 435.077 197.373C437.29 198.676 427.954 199.313 426.205 199.432C422.34 199.696 417.161 199.794 414.326 197.091C411.944 194.82 412.083 191.466 414.998 189.566ZM592.956 380.854C592.791 382.775 592.385 384.535 591.625 385.986C592.195 384.334 592.632 382.617 592.956 380.854Z" fill="#F2F2F2"/>
<path opacity="0.2" fill-rule="evenodd" clip-rule="evenodd" d="M239.49 66.8544C236.925 65.1994 232.944 66.2566 230.36 67.2353C229.364 67.6128 226.82 68.8195 224.932 70.1773C225.182 69.2366 225.405 68.2877 225.6 67.3311C226.4 63.3976 226.953 59.3897 227.219 55.4051C227.289 54.3659 227.2 53.2048 227.11 52.0285L227.11 52.0285L227.11 52.0278C227.079 51.6295 227.048 51.2294 227.024 50.8317C227.127 50.7377 227.197 50.6079 227.226 50.4321C227.237 50.505 227.243 50.5634 227.248 50.6082C227.256 50.6795 227.259 50.7158 227.273 50.7197C227.286 50.7236 227.31 50.6929 227.359 50.6304C227.377 50.6064 227.399 50.5778 227.426 50.5447C229.336 48.1324 230.941 45.4145 231.163 42.4274C231.351 39.894 228.89 35.1018 225.394 38.4215C223.831 39.904 224.23 50.3114 226.577 50.9482C225.948 54.3971 225.158 57.8403 224.168 61.2398C224.02 61.2178 223.869 61.2159 223.72 61.2332C223.734 60.3881 223.736 59.4659 223.696 59.1489C223.345 56.4175 220.647 50.8731 216.346 51.9516C213.041 52.7805 215.065 56.1859 216.188 57.6762C217.997 60.0757 220.044 61.1142 222.637 62.3613C222.689 62.8771 223.082 63.1768 223.547 63.2741C221.807 68.7642 219.523 74.1191 216.534 79.1775L216.455 78.8563C216.077 77.3214 215.636 75.5317 215.356 75.1559C213.894 73.1892 210.656 70.7877 207.668 71.9531C201.392 74.4039 208.198 81.4372 213.539 82.2003C213.761 82.4594 213.996 82.6678 214.246 82.7872C213.207 84.3142 212.097 85.8095 210.909 87.2662C209.128 89.4574 207.214 91.6417 205.207 93.8131C205.146 92.1153 204.354 88.3313 204.13 87.9249C202.762 85.4563 198.815 82.9173 195.612 84.6728C192.009 86.6521 195.272 90.3879 197.326 92.0783C198.167 92.7714 202.331 95.3108 203.8 95.3217C198.952 100.442 193.601 105.476 188.16 110.327C188.612 108.156 189.204 102.178 189.139 101.514C188.803 98.0896 186.142 92.6129 180.893 93.9499C175.799 95.2451 178.049 100.935 179.79 103.647C180.845 105.288 182.304 106.956 184.064 108.1C184.381 108.306 184.796 108.474 185.209 108.642L185.209 108.642C185.708 108.845 186.206 109.047 186.531 109.314C186.821 109.553 186.91 109.827 186.998 110.099C187.091 110.386 187.183 110.67 187.51 110.908C184.57 113.518 181.61 116.074 178.691 118.559C177.314 119.733 175.912 120.883 174.497 122.019C173.723 121.748 172.619 122.105 172.676 123.031C172.684 123.166 172.721 123.282 172.77 123.388C171.697 124.231 170.618 125.069 169.529 125.897C169.554 125.656 169.547 125.316 169.498 124.846C170.28 125.787 170.248 124.416 170.224 123.371C170.215 123.002 170.208 122.673 170.237 122.502C170.353 121.83 170.502 121.165 170.651 120.502C170.97 119.083 171.287 117.669 171.272 116.206C171.24 113.099 168.914 107.892 164.012 109.744C159.505 111.444 161.142 116.048 162.84 118.934C163.915 120.76 165.387 122.391 166.925 123.952C167.199 124.23 167.503 124.608 167.805 124.981C168.252 125.536 168.693 126.082 169.019 126.285C164.833 129.456 160.549 132.534 156.264 135.612L156.263 135.613C154.344 136.991 152.425 138.369 150.515 139.756C150.432 139.452 150.364 139.15 150.305 138.868C150.424 138.982 150.587 139.035 150.795 139.025C150.851 138.791 150.932 138.482 151.028 138.109L151.028 138.109C152.21 133.565 155.811 119.724 146.083 122.41C138.956 124.384 143.979 136.433 149.291 140.646C146.064 143.001 142.868 145.386 139.747 147.842C137.489 149.619 135.297 151.457 133.188 153.356C134.28 150.898 135.309 147.716 134.637 145.183C133.657 141.498 129.058 138.021 124.565 140.12C118.963 142.748 123.269 146.332 127.307 149.692C129.369 151.408 131.361 153.066 131.928 154.509C125.225 160.739 119.502 167.659 115.675 175.541C111.514 184.113 107.649 195.63 109.777 205.217C109.385 201.001 111.074 195.707 112.259 191.989C112.421 191.483 112.573 191.006 112.709 190.564C114.491 184.798 117.02 179.187 120.352 173.935C125.689 165.523 132.737 158.381 140.872 151.896C142.723 152.44 144.734 153.449 146.399 154.285L146.399 154.285C147.42 154.797 148.311 155.244 148.956 155.479C152.067 156.613 158.04 158.236 160.024 154.662C161.975 151.147 157.002 149.184 153.919 148.397C150.94 147.638 148.254 147.731 145.475 148.356C149.781 145.128 154.192 142.003 158.602 138.878L158.616 138.868C159.422 138.297 160.229 137.725 161.035 137.153C162.155 137.929 163.392 139.051 164.705 140.243L164.705 140.243C168.873 144.024 173.812 148.504 178.227 144.84C184.89 139.311 172.156 133.7 166.73 134.141C166.064 134.195 165.419 134.314 164.791 134.476C170.327 130.502 175.777 126.447 180.932 122.108C181.857 122.25 183.328 123.399 185.096 124.78C189.068 127.884 194.536 132.156 198.659 128.788C201.635 126.357 200.619 122.574 197.744 120.411C194.859 118.24 190.674 118.245 187.116 118.978C185.579 119.294 184.16 119.895 182.837 120.628L182.752 120.632L182.672 120.636C187.745 116.32 192.849 111.908 197.765 107.345L197.889 107.379L198.026 107.416C198.323 107.724 198.821 107.836 199.276 107.768C199.527 107.841 199.784 107.915 200.045 107.992C203.936 109.125 208.938 110.583 212.817 109.952C215.672 109.487 218.263 107.524 215.848 105.11C213.885 103.146 208.555 103.431 205.955 103.897C204.686 104.125 203.305 104.784 201.919 105.446C201.337 105.724 200.754 106.002 200.178 106.249C200.028 105.994 199.767 105.83 199.47 105.752C204.325 101.166 208.957 96.4228 213.159 91.4733C214.43 91.6392 215.839 92.1105 217.292 92.5967C220.79 93.7665 224.544 95.0219 227.24 92.3134C231.22 88.3139 223.74 85.9839 220.184 86.3651C218.983 86.4937 217.799 86.7819 216.655 87.1625C219.713 83.0877 222.049 78.7326 223.691 74.1591C223.707 74.1659 223.722 74.1729 223.736 74.1799C223.76 74.1908 223.783 74.2018 223.811 74.2122C223.786 74.2009 223.765 74.1891 223.743 74.1774C223.727 74.1687 223.711 74.16 223.694 74.1516C223.858 73.694 224.015 73.2344 224.165 72.7731C224.443 72.6422 224.702 72.5459 224.827 72.5062C223.21 73.4488 230.027 73.9067 231.303 73.9924C234.126 74.1816 237.907 74.2512 239.978 72.2956C241.718 70.653 241.618 68.2274 239.49 66.8544ZM109.354 204.839C109.479 206.119 109.849 207.287 110.578 208.245C110.043 207.15 109.642 206.011 109.354 204.839Z" fill="#C1DEE2"/>
<g opacity="0.7">
<path fill-rule="evenodd" clip-rule="evenodd" d="M519.822 244.77C533.474 244.062 550.359 252.031 551.815 266.871C552.873 277.653 552.546 288.405 554.183 299.172C555.492 307.776 558.261 316.036 562.038 323.874C565.67 331.411 573.203 337.827 575.162 345.879C576.411 351.01 575.712 358.227 573.99 363.245C571.896 369.347 573.009 368.865 577.182 373.985C585.359 384.018 592.723 394.307 597.93 406.29C605.43 423.55 610.348 443.725 607.564 462.618C607.21 465.017 606.79 473.627 603.486 474.229C599.796 474.902 601.522 469.978 601.719 468.387C602.974 458.238 604.089 449.367 602.575 439.059C596.732 399.288 568.201 373.085 549.623 339.331C548.602 337.59 546.446 333.445 544.947 330.711C542.58 326.393 540.201 318.179 536.997 314.977C530.963 308.947 536.511 321.071 537.686 323.385C539.173 326.313 540.808 329.425 542.332 331.99C549.302 343.882 557.082 356.862 564.28 369.121C533.147 376.214 511.221 338.785 502.866 314.178C495.982 293.905 487.746 246.505 519.822 244.77Z" fill="#69A1AC"/>
<path fill-rule="evenodd" clip-rule="evenodd" d="M702.805 207.121C679.983 208.932 665.331 223.992 658.511 245.056C654.835 256.407 654.413 268.068 652.37 279.734C649.298 297.284 642.686 310.585 629.764 323.089C625.762 326.961 622.812 330.937 620.716 335.191C616.554 339.438 612.931 344.244 610.269 350.12C606.869 357.624 605.907 366.628 609.832 374.109C610.888 376.121 613.521 380.158 616.25 381.992C606.033 403.752 600.415 427.584 601.048 451.386C601.431 465.753 602.132 480.127 602.951 494.477C603.171 498.33 604.426 504.693 606.31 498.231C608.035 492.32 605.872 483.041 605.672 476.867C604.698 446.786 603.866 419.435 616.248 391.331C617.547 388.385 618.924 385.463 620.357 382.565C620.442 382.516 620.52 382.457 620.599 382.4C620.653 382.442 620.703 382.487 620.758 382.529C620.849 382.365 620.975 382.171 621.121 381.954C621.532 381.529 621.891 380.993 622.233 380.395C623.331 378.873 624.574 377.084 624.581 376.105C624.581 376.098 624.577 376.086 624.577 376.078C632.242 363.565 641.022 351.742 649.99 340.149C649.923 340.234 659.718 326.897 658.204 334.272C657.474 337.827 650.269 344.595 647.359 348.36C640.922 356.735 633.363 367.348 627.082 377.61C626.237 378.096 625.043 380.48 624.179 382.257C623.702 383.157 623.257 384.064 622.82 384.855C645.077 392.208 662.39 377.396 674.196 360.168C674.21 360.147 674.223 360.126 674.236 360.106C677.829 355.346 681.509 350.619 686.107 346.856C693.777 340.576 701.992 339.468 711.036 336.378C735.7 327.951 746.186 295.987 749.516 272.27C753.274 245.513 734.894 204.483 702.805 207.121Z" fill="#89C5CC"/>
<path fill-rule="evenodd" clip-rule="evenodd" d="M657.723 132.19C634.299 156.569 622.982 190.383 614.022 222.172C604.014 257.676 597.403 293.728 597.149 330.642C596.983 354.895 596.323 379.299 597.739 403.523C598.241 412.126 599.099 420.745 600.462 429.255C600.575 429.955 603.626 448.958 606.545 444.53C608.205 442.012 603.417 424.817 603.056 421.953C601.021 405.822 600.548 389.573 600.647 373.326C600.81 346.575 600.021 319.962 602.733 293.309C603.137 289.33 603.457 285.151 604.402 281.258C605.406 277.119 604.127 278.926 607.396 277.287C610.573 275.694 614.498 275.922 617.794 273.924C630.866 265.997 637.553 245.635 642.758 232.275C648.711 216.998 652.329 200.706 655.219 184.628C657.341 172.816 658.858 161.075 659.716 149.11C659.987 145.339 660.003 141.396 660.744 137.688C660.944 136.688 661.945 134.919 661.909 134.033C661.832 132.158 660.701 131.056 660.608 129.481C659.627 130.363 658.665 131.267 657.723 132.19Z" fill="#89C5CC"/>
<path fill-rule="evenodd" clip-rule="evenodd" d="M530 457C530 497.317 562.683 530 603 530C643.317 530 676 497.317 676 457" fill="#89C5CC"/>
<path fill-rule="evenodd" clip-rule="evenodd" d="M653.028 393.085C671.095 391.753 691.271 406.329 699.986 421.497C707.012 433.726 705.828 449.785 701.489 462.778C698.583 471.476 692.241 483.878 681.665 483.999C668.433 484.15 667.795 467.796 667.539 458.236C667.199 445.525 665.593 434.453 655.577 425.789C654.341 424.72 653.043 423.719 651.746 422.718C650.594 421.829 649.443 420.941 648.334 420.005C648.157 419.855 647.978 419.706 647.8 419.556C644.258 416.579 640.539 413.453 640.086 408.546C639.43 401.436 643.443 400.156 649.571 401.477C649.769 401.52 650.306 401.723 651.036 402C654.166 403.186 660.844 405.718 659.581 402.692C659.105 401.552 657.368 400.648 655.175 399.971C649.501 399.354 642.733 398.638 640.787 399.066C619.792 403.672 611.617 432.755 609.446 451.233C609.212 453.227 609.023 455.228 608.857 457.232H605C605.268 452.393 605.621 447.562 606.43 442.776C609.525 424.473 619.2 397.591 640.42 394.62C641.203 394.51 644.083 394.491 647.571 394.696C649.224 393.772 651.076 393.213 653.028 393.085Z" fill="#69A1AC"/>
</g>
<g opacity="0.5">
<path fill-rule="evenodd" clip-rule="evenodd" d="M200.223 111.445C204.425 105.453 212.224 90.2348 218.138 88.0936C221.948 86.7146 220.837 100.98 220.884 103.7C221.067 114.224 220.043 124.681 218.778 135.116C216.498 153.937 209.045 170.697 198.822 186.715C193.562 194.957 187.391 203.3 178.845 208.442C174.912 210.811 170.179 211.207 166.294 213.248C161.769 215.623 164.233 213.703 162.194 218.417C159.363 224.963 158.457 233.408 157.147 240.392C151.132 272.455 136.568 441.945 139.093 474.558C139.317 477.449 135.287 478.14 135.085 474.611C134.016 455.9 143.27 326.322 147.94 283.947C152.609 241.571 157.334 204.134 162.071 189.474C167.819 171.687 178.199 150.298 186.84 133.711C190.854 126.006 195.229 118.565 200.223 111.445Z" fill="#69A1AC"/>
<path fill-rule="evenodd" clip-rule="evenodd" d="M231.414 319.278C242.349 311.25 254.186 326.401 244.29 334.43C238.82 338.868 233.101 337.29 229.882 333.591C227.792 336.139 225.836 338.803 223.956 341.052C218.229 347.909 212.817 354.928 207.644 362.111C196.898 377.035 187.689 392.801 178.06 408.278C168.558 423.554 159.132 438.908 150.519 454.571C143.223 467.841 133.498 483.452 131 498C134.79 467.146 149.172 437.49 166.298 410.291C183.285 383.314 202.779 353.853 229.081 332.564C226.404 328.627 226.33 323.008 231.414 319.278Z" fill="#C1DEE2"/>
<path fill-rule="evenodd" clip-rule="evenodd" d="M23.9132 244.031C30.0324 245.227 40.0312 259.07 45.0753 264.344C51.0699 270.612 56.5084 277.292 61.6349 284.292C72.6711 299.358 82.5411 315.376 90.9339 332.08C104.616 359.311 115.578 387.265 123.533 416.918C128.403 435.069 131.556 453.883 133.424 472.565C133.777 476.089 137.471 503.253 132.148 503.985C127.361 504.644 128.84 483.359 128.609 480.463C125.998 447.798 118.177 416.015 107.299 385.226C104.929 378.519 102.728 370.304 98.9381 364.268C96.2092 359.921 98.9186 361.437 94.1228 359.792C90.0049 358.378 85.3131 358.724 81.0963 356.993C71.9356 353.237 64.6006 345.944 58.1709 338.608C45.6758 324.351 35.774 308.928 30.6126 290.66C27.7495 280.532 25.1184 270.344 23.6583 259.902C23.2806 257.203 19.9718 243.26 23.9132 244.031Z" fill="#69A1AC"/>
<path fill-rule="evenodd" clip-rule="evenodd" d="M48.0614 13.716C71.1113 53.6904 90.0528 97.6012 102.283 142.076C109.694 169.023 114.876 196.675 120.025 224.126C127.997 266.632 135.538 309.134 137.683 352.395C139.841 395.906 144.108 446.092 129.861 488C136.978 445.452 130.202 400.162 129.002 357.35C128.429 336.912 126.768 316.674 124.588 296.355C122.473 276.645 119.018 257.029 115.801 237.474C114.234 227.95 112.588 218.441 110.912 208.937C110.411 206.101 110.2 197.687 108.401 195.75C106.591 193.8 97.3543 193.005 94.4544 191.574C88.6149 188.693 83.1221 184.6 78.2609 180.275C68.9418 171.984 60.8347 161.151 54.4359 150.472C39.6307 125.764 33.7116 95.61 34.0108 66.9942C34.0682 61.4382 43.0034 1.60995 39.4149 0.786066C39.631 0.533029 39.8353 0.271761 40.028 0C42.7448 4.54878 45.4108 9.1284 48.0614 13.716Z" fill="#89C5CC"/>
<path fill-rule="evenodd" clip-rule="evenodd" d="M296.846 157.887C297.202 157.374 299.517 153.807 298.351 154.035C300.724 153.57 295.087 157.969 301 155.27C298.192 157.922 299.813 161.366 299.85 164.935C299.911 170.73 298.942 176.476 297.851 182.146C296.126 191.109 293.557 199.823 289.828 208.159C281.701 226.326 267.901 243.814 251.518 255.172C243.43 260.779 235.504 262.689 226.28 265.27C220.453 266.901 219.991 269.915 216.898 275.569C210.46 287.345 204.136 299.078 198.457 311.251C191.677 325.788 185.095 340.34 178.886 355.132C157.969 404.957 140.945 456.578 132.005 510C131.786 478.519 139.069 446.095 148.255 416.088C154.947 394.226 163.658 373.151 172.95 352.29C175.201 347.236 178.613 340.735 179.57 335.155C180.239 331.245 178.192 327.486 177.255 323.367C173.601 307.33 173.863 289.363 177.071 273.24C180.609 255.461 190.839 247.209 208.145 244.691C214.474 243.769 222.519 244.107 228.322 241.408C234.645 238.47 237.253 228.81 240.849 222.61C250.506 205.953 261.98 189.979 275.155 175.945C278.803 172.059 282.726 168.473 286.888 165.15C289.513 163.053 295.058 160.47 296.846 157.887Z" fill="#89C5CC"/>
<path fill-rule="evenodd" clip-rule="evenodd" d="M97.845 481.729C97.3997 478.71 99.7396 476 102.791 476H164.209C167.26 476 169.6 478.71 169.155 481.729L164.408 513.918C162.961 523.73 154.541 531 144.622 531H122.378C112.459 531 104.039 523.73 102.592 513.918L97.845 481.729Z" fill="#C1DEE2"/>
</g>
<path fill-rule="evenodd" clip-rule="evenodd" d="M47.4177 492.456C47.4177 513.743 49.0976 531 71.6456 531C94.1935 531 95.8734 513.743 95.8734 492.456" fill="#F2F2F2"/>
<path fill-rule="evenodd" clip-rule="evenodd" d="M78.3534 479.174C77.5269 480.603 76.79 482.061 76.139 483.54C76.116 480.493 76.2845 477.424 76.7446 474.313C77.531 468.983 78.7322 463.682 79.8609 458.388C80.6721 454.584 80.6208 447.752 83.6994 444.72C84.5436 444.065 84.7468 445.351 84.7468 445.908C84.7575 446.026 84.7445 443.632 83.9251 444.049C79.0544 446.564 77.4763 454.474 75.9169 458.434C73.6418 464.215 71.7061 470.124 70.909 476.138C70.7076 477.657 70.598 479.176 70.5727 480.692C70.4071 480.287 70.2516 479.878 70.0796 479.474C67.2684 472.881 63.4747 466.447 58.7431 460.514C57.5784 459.054 42.9342 444.649 41.7878 446.854C41.9009 447.174 42.1377 447.44 42.4988 447.651C42.52 447.675 42.5206 447.662 42.5083 447.626C43.3683 449.016 45.8137 451.161 46.5754 452.379C48.4923 455.442 49.9821 458.693 51.4961 461.882C54.6948 468.622 57.6621 475.429 60.5386 482.25C61.2084 483.839 61.9065 485.419 62.6187 486.994C55.2769 476.405 45.4826 466.791 32 461.287C36.6049 463.63 39.624 468.037 42.7339 471.412C46.4846 475.483 50.4351 479.444 54.1929 483.51C58.6253 488.307 63.8405 493.358 68.1038 498.666C72.2333 507.336 76.2462 516.015 78.7234 525.128C77.7084 521.98 78.6438 517.628 78.4701 514.324C78.3322 511.693 78.0247 509.084 77.6035 506.48C78.1243 507.655 78.5732 508.83 78.7764 509.924C78.5908 508.09 78.377 506.268 78.1472 504.455C78.7369 502.758 79.316 501.175 79.7072 499.87C81.7118 493.179 84.0988 486.602 87.3495 480.193C90.3574 474.264 93.8077 468.41 97.5673 462.735C99.321 460.089 101.099 457.453 102.866 454.812C104.022 453.083 105.123 450.316 106.733 448.659C96.3261 458.174 84.956 467.757 78.3534 479.174Z" fill="#F2F2F2"/>
<path fill-rule="evenodd" clip-rule="evenodd" d="M719.633 136.827C716.65 126.876 709.646 119.087 702.375 111.951C688.22 98.0582 680.607 89.4683 675.562 69.1456C672.595 57.1934 669.575 44.5276 660.165 35.8561C653.313 29.5413 641.521 24.2358 632.357 28.7577C618.261 37.1717 614.475 54.4386 615.897 69.9001C617.659 89.0635 626.61 100.88 643.807 107.938C653.497 111.913 659.938 117.159 665.198 126.299C669.405 133.607 671.858 142.759 677.145 149.384C685.05 159.289 694.941 163.691 707.134 162.046C695.714 141.035 682.371 119.826 666.278 102.135C664.771 100.357 655.886 93.5492 657.678 90.5181C659.652 87.1806 668.774 99.7175 668.709 99.6418C673.386 105.01 677.714 110.715 681.963 116.475C681.953 116.48 681.94 116.483 681.928 116.489C686.304 122.4 690.644 128.397 694.902 134.469C696.624 137.038 698.3 139.639 699.905 142.306C702.259 146.219 705.996 157.325 709.849 159.731C710.673 160.245 711.436 160.533 712.148 160.651C714.777 164.956 717.335 169.295 719.768 173.685C726.121 185.151 731.574 197.257 734.076 210.202C734.807 213.981 734.29 228.114 736.869 230.842C741.584 235.831 740.203 226.223 739.921 223.323C737.579 199.31 728.958 178.852 716.441 158.664C720.286 153.641 720.842 140.859 719.633 136.827Z" fill="#F2F2F2"/>
<path fill-rule="evenodd" clip-rule="evenodd" d="M558.131 148.43C563.102 142.573 575.052 141.579 582.361 141.971C591.404 142.456 600.694 144.658 609.298 147.32C623.471 151.704 637.244 159.706 649.727 167.451C651.231 168.384 669.764 179.529 668.124 181.485C666.498 183.423 648.305 170.184 644.25 167.902C635.597 163.032 627.662 157.272 618.124 154.055C608.249 150.724 597.805 149.405 587.42 149.496C586.087 149.508 581.74 148.579 581.646 150.551C581.554 152.479 588.748 151.473 590.016 151.485C595.255 151.533 600.527 152.026 605.691 152.934C615.368 154.635 624.465 158.061 632.753 163.317C630.44 168.694 624.897 171.173 619.081 169.828C614.055 168.664 609.156 165.795 604.234 164.966C600.845 164.395 597.451 164.735 594.164 165.69C585.494 168.209 580.494 173.371 570.962 169.78C563.489 166.966 550.991 156.853 558.131 148.43Z" fill="#F2F2F2"/>
<path fill-rule="evenodd" clip-rule="evenodd" d="M536.753 54.0513C525.715 53.2462 513.388 62.0557 508.063 71.2232C503.771 78.6147 504.494 88.3207 507.145 96.1734C508.921 101.431 512.795 108.926 519.257 108.999C527.341 109.091 527.73 99.2066 527.887 93.4283C528.095 85.7462 529.076 79.054 535.195 73.8177C535.95 73.1715 536.743 72.5664 537.536 71.9614C538.239 71.4243 538.943 70.8873 539.62 70.3217C539.728 70.2313 539.837 70.1408 539.946 70.0501C542.11 68.251 544.383 66.3615 544.659 63.3961C545.06 59.0986 542.608 58.3252 538.864 59.1236C538.743 59.1493 538.415 59.2724 537.969 59.4397C536.057 60.1566 531.977 61.6865 532.749 59.8577C533.039 59.1686 534.101 58.6225 535.441 58.2134C538.907 57.8405 543.042 57.4078 544.231 57.6663C557.058 60.4502 562.052 78.0278 563.379 89.1957C563.529 90.4603 563.649 91.7292 563.753 93H566.105C565.94 90.0154 565.726 87.0357 565.221 84.0845C563.331 73.0223 557.42 56.7749 544.455 54.9794C543.977 54.9125 542.217 54.9012 540.086 55.0249C539.076 54.4665 537.945 54.1289 536.753 54.0513Z" fill="#F2F2F2"/>
<path fill-rule="evenodd" clip-rule="evenodd" d="M234.555 342.81C239.952 346.065 245.254 347.638 247.743 346.996C253.984 345.386 254.558 322.538 249.729 313.531C244.9 304.524 220.075 300.598 218.823 318.444C218.389 324.638 220.988 330.165 224.828 334.676L217.943 366.79H237.943L234.555 342.81Z" fill="#B28B67"/>
<path fill-rule="evenodd" clip-rule="evenodd" d="M251.617 317.575C251.419 316.408 250.935 315.111 250.544 314.006C250.04 312.582 249.278 311.299 248.439 310.089C246.86 307.811 244.966 305.753 242.874 304.046C239.053 300.927 234.19 299.128 229.407 299.713C226.992 300.008 224.648 300.929 222.653 302.463C220.85 303.85 219.117 305.89 216.782 306.037C214.243 306.196 211.914 303.953 209.878 302.567C207.581 301.006 205.138 299.867 202.454 299.425C197.957 298.684 193.733 300.204 190.634 303.896C187.336 307.825 184.939 313.586 187.105 318.792C187.507 319.759 188.025 320.575 188.768 321.251C189.45 321.871 190.491 322.531 190.767 323.521C191.061 324.574 190.184 325.933 189.844 326.883C189.357 328.244 188.957 329.673 189.099 331.153C189.333 333.583 190.859 335.903 192.47 337.5C194.11 339.125 196.128 340.057 198.283 340.487C199.723 340.773 201.194 340.932 202.657 340.824C203.383 340.771 204.024 340.569 204.727 340.408C205.411 340.252 205.794 340.434 206.374 340.809C209.071 342.554 211.971 343.229 215.084 342.97C217.712 342.751 220.741 342.113 222.885 340.311C225.266 338.31 225.219 335.551 224.658 332.602C225.252 332.897 226.894 333.079 225.913 331.906C225.524 331.441 224.79 331.252 224.291 330.978C223.71 330.66 223.12 330.249 222.669 329.73C220.848 327.634 222.688 323.368 224.976 322.665C228.377 321.621 229.138 326.433 231.565 327.678C232.961 328.393 234.421 327.415 235.467 326.416C236.867 325.078 237.822 323.305 238.646 321.501C239.325 320.016 239.957 318.509 240.649 317.031C240.972 316.341 242.091 314.389 241.529 313.609C243.965 313.123 246.677 314.135 248.775 315.464C249.642 316.013 250.303 316.618 250.765 317.587C250.864 317.795 251.08 318.413 251.351 318.438C251.855 318.485 251.667 317.868 251.617 317.575Z" fill="#191847"/>
<path fill-rule="evenodd" clip-rule="evenodd" d="M171.443 471.864C162.606 471.864 155.443 479.027 155.443 487.864V559.269C155.443 568.106 162.606 575.269 171.443 575.269H261.943C270.779 575.269 277.943 568.106 277.943 559.269V487.864C277.943 479.027 270.779 471.864 261.943 471.864H171.443ZM182.776 495.213C180.567 495.213 178.776 497.004 178.776 499.213V547.92C178.776 550.129 180.567 551.92 182.776 551.92H250.609C252.818 551.92 254.609 550.129 254.609 547.92V499.213C254.609 497.004 252.818 495.213 250.609 495.213H182.776Z" fill="#C5CFD6"/>
<path fill-rule="evenodd" clip-rule="evenodd" d="M360.575 571.1C344.145 551.023 333.028 536.138 327.224 526.447C317.287 509.852 309.154 495.087 306.587 489.446C300.466 475.996 320.678 469.698 325.252 475.971C332.175 485.467 346.961 515.347 369.609 565.61L360.575 571.1Z" fill="#B28B67"/>
<path fill-rule="evenodd" clip-rule="evenodd" d="M326.907 565.262L296.33 488.239C289.79 474.198 321.372 464.969 326.179 471.503C337.09 486.338 363.025 544.86 366.276 549.28L326.907 565.262Z" fill="#2F3676"/>
<path fill-rule="evenodd" clip-rule="evenodd" d="M245.47 549.816C251.426 541.121 273.091 511.87 284.892 499.767C288.283 496.289 291.591 492.951 294.721 489.841C304.023 480.594 322.546 496.135 313.261 504.557C290.139 525.53 256.402 553.843 253.583 556.368C249.633 559.906 241.727 555.28 245.47 549.816Z" fill="#B28B67"/>
<path fill-rule="evenodd" clip-rule="evenodd" d="M249.546 546.529C248.844 545.591 247.502 545.365 246.611 546.125C245.273 547.268 243.519 548.885 242.859 550.03C241.732 551.983 240.22 556.107 240.22 556.107C242.484 557.415 280.924 579.624 280.924 579.624C280.924 579.624 285.539 575.292 282.362 572.898C279.186 570.505 277.119 568.861 277.119 568.861L263.17 549.629C262.839 549.173 262.197 549.08 261.751 549.424L258.967 551.569C258.967 551.569 254.95 551.218 252.972 550.075C251.854 549.429 250.507 547.813 249.546 546.529Z" fill="#E4E4E4"/>
<path fill-rule="evenodd" clip-rule="evenodd" d="M356.152 567.313C355.075 566.851 353.799 567.327 353.408 568.431C352.82 570.09 352.109 572.368 352.109 573.69C352.109 575.946 352.86 580.273 352.86 580.273C355.475 580.273 399.862 580.273 399.862 580.273C399.862 580.273 401.694 574.212 397.747 573.729C393.799 573.245 391.188 572.856 391.188 572.856L369.5 563.18C368.985 562.95 368.382 563.191 368.168 563.712L366.829 566.963C366.829 566.963 363.174 568.669 360.89 568.669C359.599 568.669 357.625 567.944 356.152 567.313Z" fill="#E4E4E4"/>
<path fill-rule="evenodd" clip-rule="evenodd" d="M285.328 492.086C285.328 492.086 247.207 485.871 234.26 483.587C209.657 479.246 202.483 465.997 206.725 437.091L252.054 437.091C261.052 439.691 327.249 469.255 327.249 469.255C335.189 473.199 333.71 484.829 332.259 488.66C332.17 488.895 292.103 557.518 292.103 557.518L255.021 533.878L285.397 494.872C285.397 494.872 286.601 492.446 285.328 492.086Z" fill="#5C63AB"/>
<path fill-rule="evenodd" clip-rule="evenodd" d="M164.108 473.455C166.55 468.497 178.751 404.691 178.751 404.691L196.999 404.76C196.999 404.76 176.151 472.349 174.866 475.538C173.196 479.679 176.033 485.696 177.956 489.776C178.254 490.407 178.529 490.992 178.763 491.517C176.094 492.712 174.812 491.267 173.461 489.744C171.934 488.024 170.319 486.204 166.516 487.975C165.047 488.659 163.657 489.467 162.298 490.257C157.607 492.986 153.297 495.493 147.434 491.873C146.504 491.299 145.485 489.138 147.946 487.449C154.078 483.242 162.914 475.879 164.108 473.455ZM317.794 448.593L294.187 425.548L286.346 439.124L310.894 453.607C317.049 463.31 320.664 467.502 321.739 466.184C322.645 465.073 322.23 463.855 321.847 462.733C321.549 461.859 321.271 461.043 321.653 460.382C322.526 458.871 327.454 459.736 332.096 460.757C336.738 461.778 335.664 459.497 334.677 458.306C330.29 454.763 324.662 451.525 317.794 448.593Z" fill="#B28B67"/>
<path fill-rule="evenodd" clip-rule="evenodd" d="M234.355 352.89L241.561 351.653C252.913 391.808 311.237 419.179 314.817 434.19C316.13 439.695 312.171 442.478 314.216 444.154L304.85 451.016C303.264 449.164 299.879 452.551 292.81 450.182C285.742 447.812 234.355 400.437 234.355 352.89Z" fill="#DB2721"/>
<path fill-rule="evenodd" clip-rule="evenodd" d="M222.204 344.553C220 344.399 218.089 346.061 217.935 348.264L217.64 352.487C204.079 362.93 170.467 394.137 161.709 452.231C160.789 458.333 162.452 461.602 163.782 464.213C164.691 466 165.444 467.479 165.107 469.348L177.365 472.734C177.365 471.354 178.909 470.304 180.903 468.95C183.801 466.982 187.647 464.369 189.069 459.161C190.417 454.225 192.39 448.059 194.748 441.2C194.971 450.284 196.693 458.638 200.443 465.557C209.799 482.82 263.867 463.889 269.515 446.278C272.53 436.88 268.253 428.99 262.596 418.556C255.415 405.311 246.012 387.965 246.477 358.229L247.031 350.3C247.185 348.097 245.523 346.185 243.319 346.031L222.204 344.553Z" fill="#FF4133"/>
<path fill-rule="evenodd" clip-rule="evenodd" d="M469.453 290.188C464.049 293.446 458.739 295.02 456.246 294.377C449.996 292.766 449.421 269.9 454.257 260.886C459.093 251.872 483.955 247.943 485.208 265.803C485.643 272.002 483.041 277.534 479.195 282.048L486.09 314.187H466.061L469.453 290.188Z" fill="#B28B67"/>
<path fill-rule="evenodd" clip-rule="evenodd" d="M455.565 257.391C455.741 256.302 455.393 255.767 459.773 252.698C464.152 249.63 471.223 246.011 478.344 247.586C487.586 249.63 491.257 255.726 494.821 258.69C498.034 261.362 501.258 261.674 503.168 264.989C505.078 268.304 506.095 277.842 504.434 281.634C502.142 286.865 497.623 288.274 494.324 289.781C488.667 292.366 480.67 289.636 480.477 289.184C478.978 285.686 470.912 275.819 466.061 271.674C462.493 268.625 454.741 262.503 455.565 257.391Z" fill="#5C63AB"/>
<mask id="mask0" mask-type="alpha" maskUnits="userSpaceOnUse" x="455" y="247" width="51" height="44">
<path fill-rule="evenodd" clip-rule="evenodd" d="M455.565 257.391C455.741 256.302 455.393 255.767 459.773 252.698C464.152 249.63 471.223 246.011 478.344 247.586C487.586 249.63 491.257 255.726 494.821 258.69C498.034 261.362 501.258 261.674 503.168 264.989C505.078 268.304 506.095 277.842 504.434 281.634C502.142 286.865 497.623 288.274 494.324 289.781C488.667 292.366 480.67 289.636 480.477 289.184C478.978 285.686 470.912 275.819 466.061 271.674C462.493 268.625 454.741 262.503 455.565 257.391Z" fill="white"/>
</mask>
<g mask="url(#mask0)">
<path fill-rule="evenodd" clip-rule="evenodd" d="M483.058 282.659C492.636 270.847 494.889 256.602 494.889 256.602L497.774 258.426C497.774 258.426 494.226 273.994 483.058 282.659ZM479.414 289.15C494.914 275.531 498.61 260.225 498.61 260.225L501.947 261.209C501.947 261.209 497.349 278.324 479.414 289.15Z" fill="black" fill-opacity="0.2"/>
</g>
<path fill-rule="evenodd" clip-rule="evenodd" d="M499.416 384.662L468.057 487.382L452.866 574.738H440.955L457.007 384.662H499.416Z" fill="#997659"/>
<path fill-rule="evenodd" clip-rule="evenodd" d="M510.635 384.662C508.505 441.061 511.012 470.152 511.488 475.276C511.965 480.4 518.493 513.625 533.947 576.459L521.255 572.091C496.832 514.463 488.509 484.513 485.708 476.946C482.907 469.379 475.467 438.617 463.389 384.662H510.635Z" fill="#B28B67"/>
<path fill-rule="evenodd" clip-rule="evenodd" d="M531.206 571.241C532.283 570.779 533.56 571.255 533.951 572.36C534.539 574.021 535.25 576.302 535.25 577.625C535.25 579.884 534.499 584.217 534.499 584.217C531.884 584.217 487.497 584.217 487.497 584.217C487.497 584.217 485.665 578.148 489.612 577.664C493.56 577.18 496.171 576.79 496.171 576.79L517.859 567.103C518.374 566.873 518.977 567.114 519.191 567.635L520.53 570.89C520.53 570.89 524.185 572.598 526.469 572.598C527.759 572.598 529.732 571.872 531.206 571.241Z" fill="#E4E4E4"/>
<path fill-rule="evenodd" clip-rule="evenodd" d="M452.872 571.241C453.95 570.779 455.226 571.255 455.618 572.36C456.206 574.021 456.916 576.302 456.916 577.625C456.916 579.884 456.165 584.217 456.165 584.217C453.55 584.217 409.164 584.217 409.164 584.217C409.164 584.217 407.332 578.148 411.279 577.664C415.226 577.18 417.837 576.79 417.837 576.79L439.525 567.103C440.04 566.873 440.644 567.114 440.858 567.635L442.197 570.89C442.197 570.89 445.851 572.598 448.136 572.598C449.426 572.598 451.399 571.872 452.872 571.241Z" fill="#E4E4E4"/>
<path fill-rule="evenodd" clip-rule="evenodd" d="M503.583 384.662L490.25 436.996H449.525L455.597 384.662H503.583Z" fill="#69A1AC"/>
<path fill-rule="evenodd" clip-rule="evenodd" d="M511.083 384.662C517.664 404.426 513.583 436.996 513.583 436.996H472.025L460.597 384.662H511.083Z" fill="#89C5CC"/>
<path fill-rule="evenodd" clip-rule="evenodd" d="M384.313 301.458L416.958 306.443L410.829 320.867L384.462 309.981C372.998 310.903 367.468 310.539 367.874 308.888C368.217 307.496 369.44 307.095 370.568 306.726C371.446 306.438 372.266 306.17 372.564 305.467C373.246 303.862 369.585 300.448 365.972 297.357C362.36 294.265 364.831 293.75 366.377 293.822C371.852 295.193 377.831 297.738 384.313 301.458ZM403.828 384.213L427.474 361.184L435.323 374.745L410.736 389.22C404.569 398.915 400.948 403.104 399.872 401.788C398.965 400.678 399.381 399.461 399.764 398.34C400.063 397.467 400.342 396.652 399.959 395.991C399.086 394.482 394.15 395.348 389.501 396.369C384.853 397.39 385.929 395.11 386.917 393.92C391.311 390.38 396.948 387.144 403.828 384.213Z" fill="#B28B67"/>
<path fill-rule="evenodd" clip-rule="evenodd" d="M461.108 303.389C450.507 332.127 432.626 355.528 405.523 381.051L418.721 392.275C450.572 375.087 467.25 365.074 472.411 338.604C473.706 331.961 472.395 311.548 472.212 300.736L461.108 303.389Z" fill="#2026A2"/>
<path fill-rule="evenodd" clip-rule="evenodd" d="M513.752 386.774L450.116 395.718C450.116 395.718 462.487 326.853 459.507 302.255C459.406 301.419 460.742 299.733 461.452 299.83C469.235 300.888 477.252 295.999 477.252 295.999C495.742 318.099 505.15 347.186 513.752 386.774Z" fill="#F2F2F2"/>
<path fill-rule="evenodd" clip-rule="evenodd" d="M466.483 335.194C462.525 379.148 467.879 413.922 489.822 410.838L523.753 406.069C524.061 369.16 502.853 321.024 486.169 297.587C485.532 296.692 484.209 295.022 481.694 295.375L471.835 296.761C471.832 296.774 471.83 296.788 471.827 296.802C468.864 297.243 465.612 297.81 462.09 298.425C443.959 301.589 418.678 306 388.811 300.858L387.804 318.139C415.927 331.074 443.851 340.233 466.483 335.194Z" fill="#1F28CF"/>
</svg>
