<svg width="400" height="450" viewBox="0 0 400 450" fill="none" xmlns="http://www.w3.org/2000/svg">
<path fill-rule="evenodd" clip-rule="evenodd" d="M99.0706 40.8829C127.371 -23.0776 307.305 -11.3713 362.669 71.6594C418.033 154.69 354.759 339.154 298.041 339.154C241.323 339.154 241.323 214.611 217.937 178.035C194.55 141.458 70.77 104.843 99.0706 40.8829Z" fill="#91FFBD" fill-opacity="0.7"/>
<path fill-rule="evenodd" clip-rule="evenodd" d="M40.2251 222.247C56.2656 252.294 84.3705 229.649 120.504 198.217C156.638 166.784 202.451 135.752 186.411 105.704C170.37 75.657 112.741 79.4955 76.6073 110.928C40.4734 142.361 24.1845 192.2 40.2251 222.247Z" fill="#2B44FF" fill-opacity="0.6"/>
<path fill-rule="evenodd" clip-rule="evenodd" d="M351.92 314.438C374.78 314.438 400 292.549 400 264.657C400 236.765 374.78 214.876 351.92 214.876C329.059 214.876 320.558 246.796 320.558 269.673C320.558 292.549 329.059 314.438 351.92 314.438Z" fill="#FF73C6" fill-opacity="0.7"/>
<path fill-rule="evenodd" clip-rule="evenodd" d="M177.918 150.712C183.692 154.206 189.365 155.894 192.029 155.205C198.707 153.477 199.321 128.952 194.153 119.284C188.986 109.615 162.424 105.401 161.085 124.558C160.62 131.206 163.401 137.139 167.51 141.981L160.142 176.453H181.542L177.918 150.712Z" fill="#B28B67"/>
<path fill-rule="evenodd" clip-rule="evenodd" d="M165.865 146.293C163.179 134.297 155.528 126.12 156.696 120.759C157.865 115.397 162.925 114.09 162.925 114.09C162.925 114.09 165.543 103.461 179.809 105.048C194.074 106.635 202.781 112.583 199.021 125.67C195.565 125.67 191.392 124.415 185.622 126.565C182.876 127.588 181.694 132.911 181.694 132.911H179.086C179.086 132.911 175.291 126.594 171.601 128.268C167.911 129.943 169.923 136.403 169.923 136.403L168.639 146.293H165.865Z" fill="#191847"/>
<path fill-rule="evenodd" clip-rule="evenodd" d="M121.464 288.345H190.35L199.376 399.342H96.8344L121.464 288.345Z" fill="#C5CFD6"/>
<path fill-rule="evenodd" clip-rule="evenodd" d="M121.464 288.345H142.651L155.331 399.342H96.8344L121.464 288.345Z" fill="black" fill-opacity="0.1"/>
<path fill-rule="evenodd" clip-rule="evenodd" d="M228.197 310.335C220.456 326.816 208.361 366.823 208.361 366.823L218.629 371.533C218.629 371.533 244.685 329.478 260.608 300.73C259.866 307.202 259.111 314.488 258.411 322.147C256.751 340.292 258.41 379.494 259.302 390.818C259.863 397.934 269.496 396.444 270.395 390.799C270.547 389.843 271.168 386.487 272.094 381.479C276.636 356.924 288.521 292.657 288.542 276.921C288.551 270.589 276.228 264.901 268.884 269.329C263.839 263.925 254.291 260.81 248.806 269.737C245.319 275.412 237.034 291.522 228.197 310.335Z" fill="#B28B67"/>
<path fill-rule="evenodd" clip-rule="evenodd" d="M209.095 352.012L244.34 268.193C252.783 254.558 276.457 270.967 273.577 278.876C267.04 296.83 233.794 354.956 231.846 360.305L209.095 352.012Z" fill="#1F28CF"/>
<path fill-rule="evenodd" clip-rule="evenodd" d="M209.916 362.102C209.218 361.159 207.877 360.932 206.986 361.692C205.54 362.922 203.579 364.72 202.853 365.983C201.647 368.08 200.029 372.507 200.029 372.507C202.452 373.911 243.583 397.75 243.583 397.75C243.583 397.75 248.521 393.1 245.121 390.53C241.722 387.961 239.511 386.197 239.511 386.197L224.543 365.495C224.213 365.037 223.571 364.944 223.125 365.288L220.089 367.635C220.089 367.635 215.79 367.259 213.673 366.032C212.442 365.318 210.949 363.499 209.916 362.102Z" fill="#E4E4E4"/>
<path fill-rule="evenodd" clip-rule="evenodd" d="M259.739 385.371C258.663 384.903 257.386 385.38 256.992 386.485C256.353 388.276 255.55 390.817 255.55 392.275C255.55 394.696 256.354 399.342 256.354 399.342C259.152 399.342 306.645 399.342 306.645 399.342C306.645 399.342 308.606 392.836 304.382 392.317C300.159 391.798 297.365 391.38 297.365 391.38L274.094 380.965C273.579 380.735 272.975 380.976 272.76 381.498L271.3 385.054C271.3 385.054 267.39 386.886 264.946 386.886C263.524 386.886 261.328 386.061 259.739 385.371Z" fill="#E4E4E4"/>
<path fill-rule="evenodd" clip-rule="evenodd" d="M291.012 283.362C291.012 307.143 279.762 362.615 279.755 367.851L255.551 367.87C255.551 367.87 260.865 293.624 259.319 292.824C257.774 292.024 195.966 299.019 177.429 299.019C150.698 299.019 139.64 282.097 138.743 250.749H191.695C202.477 251.907 258.715 263.295 279.601 267.209C288.542 268.885 291.012 276.81 291.012 283.362Z" fill="#2B44FF"/>
<path fill-rule="evenodd" clip-rule="evenodd" d="M263.005 148.67L229.207 158.855L237.836 173.286L264.114 157.761C276.381 157.027 282.177 155.813 281.502 154.117C280.933 152.687 279.578 152.444 278.331 152.219C277.359 152.045 276.452 151.881 276.031 151.178C275.071 149.573 278.437 145.393 281.8 141.563C285.162 137.733 282.471 137.555 280.846 137.862C275.257 140.14 269.31 143.743 263.005 148.67ZM254.663 239.642L226.221 218.675L219.933 234.278L248.099 246.003C256.065 255.396 260.519 259.312 261.462 257.75C262.257 256.434 261.635 255.201 261.063 254.066C260.617 253.181 260.201 252.356 260.507 251.595C261.207 249.859 266.558 250.042 271.628 250.434C276.698 250.825 275.221 248.56 273.998 247.442C268.823 244.331 262.378 241.732 254.663 239.642Z" fill="#B28B67"/>
<path fill-rule="evenodd" clip-rule="evenodd" d="M182.042 162.208C197.531 191.201 219.929 213.426 252.399 236.531L240.104 250.447C203.85 236.922 184.716 228.761 175.319 201.369C172.961 194.494 171.313 172.577 169.899 161.046L182.042 162.208Z" fill="#2026A2"/>
<path fill-rule="evenodd" clip-rule="evenodd" d="M138.743 258.805H207.401C207.401 258.805 184.072 187.381 183.567 160.762C183.549 159.858 181.885 158.263 181.149 158.472C173.072 160.762 163.862 156.76 163.862 156.76C147.586 183.039 141.957 215.395 138.743 258.805Z" fill="#F2F2F2"/>
<path fill-rule="evenodd" clip-rule="evenodd" d="M181.084 196.853C191.808 243.03 191.313 280.831 167.639 280.831H131.031C125.216 241.604 140.497 187.215 154.664 159.782C155.205 158.735 156.357 156.76 159.07 156.76H169.707C169.712 156.774 169.716 156.788 169.721 156.802C172.922 156.828 176.447 156.946 180.265 157.073C199.918 157.728 227.321 158.641 258.156 148.703L261.792 166.94C233.96 184.91 205.779 198.83 181.084 196.853Z" fill="#1F28CF"/>
</svg>
