<svg width="930" height="571" viewBox="0 0 930 571" fill="none" xmlns="http://www.w3.org/2000/svg">
<path fill-rule="evenodd" clip-rule="evenodd" d="M311.227 308.331C317.119 311.245 322.909 312.653 325.627 312.079C332.442 310.637 333.069 290.178 327.795 282.112C322.522 274.047 295.412 270.531 294.046 286.512C293.572 292.058 296.41 297.008 300.604 301.048L293.085 329.804H314.925L311.227 308.331Z" fill="#B28B67"/>
<path fill-rule="evenodd" clip-rule="evenodd" d="M319.169 273.328C316.185 272.581 311.853 272.328 310.03 272.499C311.067 270.461 311.478 268.19 311.143 265.979C310.817 263.831 309.647 262.002 308.565 260.085C308.066 259.201 307.501 258.322 306.659 257.647C305.8 256.958 304.713 256.504 303.574 256.287C302.408 256.065 301.189 256.083 300.021 256.285C299.504 256.374 299.041 256.568 298.534 256.675C298.015 256.786 297.763 256.519 297.387 256.252C296.479 255.606 295.149 255.288 294 255.174C292.712 255.046 291.375 255.205 290.147 255.553C288.951 255.891 287.802 256.44 286.938 257.241C286.553 257.597 286.203 258.002 285.976 258.45C285.883 258.634 285.867 258.743 285.644 258.81C285.437 258.872 285.196 258.874 284.983 258.933C282.921 259.506 281.158 260.814 280.198 262.492C279.638 263.472 279.372 265.196 279.445 267.128C279.518 269.061 281.644 274.103 283.633 275.942C285.408 277.584 288.018 278.667 290.536 279.141C288.865 280.709 287.752 282.668 286.929 284.661C286.035 286.825 285.482 289.074 285.278 291.365C285.084 293.542 285.066 295.845 285.688 297.975C286.27 299.968 287.514 301.602 289.591 302.639C290.543 303.114 291.566 303.471 292.596 303.797C293.611 304.118 294.629 304.431 295.692 304.611C297.703 304.952 300.021 304.894 301.571 303.58C302.129 303.106 302.744 302.511 303.151 301.932C303.298 301.724 303.386 301.588 303.208 301.385C302.995 301.141 302.65 300.954 302.376 300.764C300.814 299.677 299.847 298.227 299.603 296.503C299.356 294.754 299.928 292.496 302.001 291.733C304.559 290.79 307.376 291.872 309.65 292.88C310.616 290.082 312.6 287.562 315.711 286.278C319.153 284.858 323.102 284.692 326.638 283.473C327.56 283.156 328.499 282.795 329.177 282.148C329.461 281.878 329.793 281.527 329.907 281.169C330.055 280.7 329.686 280.306 329.401 279.94C327.889 277.998 322.154 274.075 319.169 273.328Z" fill="#191847"/>
<path fill-rule="evenodd" clip-rule="evenodd" d="M291.265 522.462C329.964 522.462 361.336 497.889 361.336 467.577C361.336 437.264 329.964 412.691 291.265 412.691C252.566 412.691 221.194 437.264 221.194 467.577C221.194 497.889 252.566 522.462 291.265 522.462Z" fill="#C5CFD6"/>
<path fill-rule="evenodd" clip-rule="evenodd" d="M400.204 464.649C403.589 474.378 412.021 492.818 423.681 513.994L434.761 511.341C425.067 462.613 417 430.352 412.379 420.534C409.326 414.046 386.228 414.806 388.886 427.86C390 433.334 394.409 447.992 400.204 464.649ZM354.663 430.136C336.595 433.208 299.131 444.067 288.433 447.537C281.71 449.718 286.044 457.113 291.78 456.466C292.751 456.357 296.188 456.041 301.315 455.571C317.784 454.059 351.701 450.945 377.424 447.907C390.969 446.308 383.683 425.489 369.619 427.692C364.888 428.433 359.856 429.253 354.663 430.136Z" fill="#B28B67"/>
<path fill-rule="evenodd" clip-rule="evenodd" d="M413.088 415.035C411.241 410.088 327.267 392.53 327.267 392.53H320.386V397.792L378.251 421.963C378.174 422.743 378.221 423.568 378.408 424.437C377.99 442.356 387.336 455.743 396.59 468.997C402.641 477.664 408.652 486.274 411.868 496.058L433.127 493.456C432.508 492.156 431.529 486.296 430.19 478.284C426.814 458.082 421.151 424.198 413.207 415.233C413.18 415.201 413.151 415.17 413.123 415.139C413.112 415.104 413.101 415.07 413.088 415.035Z" fill="#1F28CF"/>
<path fill-rule="evenodd" clip-rule="evenodd" d="M325.193 436.319C319.899 435.449 315.023 434.673 310.851 434.072C283.902 430.194 276.044 418.356 280.69 392.53H330.343C338.454 394.441 380.605 408.946 402.475 416.661C416.95 421.768 412.387 440.175 404.19 444.965C404.145 445.259 403.998 445.459 403.735 445.548C372.657 456.118 346.155 455.329 329.137 454.822C322.009 454.61 316.545 454.448 313.105 455.19L307.715 441.238L325.193 436.319Z" fill="#2B44FF"/>
<path fill-rule="evenodd" clip-rule="evenodd" d="M294.147 447.419C294.064 446.254 292.889 445.258 291.597 445.381C289.702 445.56 287.208 445.88 285.939 446.388C283.726 447.273 279.841 449.577 279.841 449.577C281.093 451.683 302.341 487.431 302.341 487.431C302.341 487.431 309.163 486.528 307.748 483.159C306.332 479.79 305.464 477.534 305.464 477.534L304.577 456.396C304.553 455.837 303.983 455.375 303.357 455.407L299.583 455.602C299.583 455.602 296.16 453.328 295.067 451.488C294.488 450.515 294.246 448.81 294.147 447.419Z" fill="#E4E4E4"/>
<path fill-rule="evenodd" clip-rule="evenodd" d="M420.851 509.216C419.86 508.858 418.74 509.274 418.319 510.24C417.667 511.734 416.846 513.856 416.846 515.073C416.846 517.093 417.667 520.968 417.667 520.968C420.522 520.968 468.993 520.968 468.993 520.968C468.993 520.968 470.994 515.541 466.683 515.108C462.373 514.675 459.522 514.327 459.522 514.327L435.648 505.593C435.171 505.419 434.638 505.629 434.41 506.083L432.92 509.049C432.92 509.049 428.93 510.577 426.435 510.577C424.902 510.577 422.486 509.809 420.851 509.216Z" fill="#E4E4E4"/>
<path fill-rule="evenodd" clip-rule="evenodd" d="M397.445 399.724L368.417 382.233L362 395.25L390.746 405.031C398.875 412.867 403.421 416.134 404.384 414.831C405.195 413.732 404.561 412.704 403.977 411.757C403.522 411.019 403.097 410.33 403.409 409.696C404.124 408.248 409.584 408.4 414.759 408.727C419.934 409.054 418.426 407.164 417.178 406.231C411.896 403.637 405.318 401.468 397.445 399.724ZM245.216 430.545C247.883 426.105 256.965 382.837 256.965 382.837L275.982 382.898C275.982 382.898 258.368 429.555 256.965 432.41C255.141 436.118 258.239 441.506 260.339 445.16C260.664 445.725 260.965 446.249 261.22 446.718C258.306 447.788 256.906 446.495 255.43 445.131C253.763 443.591 251.999 441.961 247.846 443.546C246.242 444.159 244.724 444.883 243.24 445.59C238.117 448.034 233.41 450.279 227.008 447.037C225.993 446.523 224.88 444.588 227.568 443.076C234.264 439.309 243.913 432.715 245.216 430.545Z" fill="#B28B67"/>
<path fill-rule="evenodd" clip-rule="evenodd" d="M311.008 317.357L318.877 316.249C348.073 336.945 360.065 376.705 395.853 397.768L387.239 406.529C325.154 400.221 309.766 351.724 311.008 317.357Z" fill="#E87613"/>
<path fill-rule="evenodd" clip-rule="evenodd" d="M276.705 398.503C276.705 398.503 324.033 398.503 346.331 398.503C349.513 398.503 348.914 394.734 348.454 392.831C343.146 370.877 322.425 347.211 322.425 315.96L302.342 313.375C285.73 335.298 279.985 362.29 276.705 398.503Z" fill="#DDE3E9"/>
<path fill-rule="evenodd" clip-rule="evenodd" d="M268.876 414.185C265.747 420.352 262.678 425.733 259.787 429.866H244.854C243.248 387.241 262.914 354.443 279.372 334.667C275.718 334.453 272.42 333.198 270.335 330.11C262.994 319.242 265.645 313.258 273.49 311.29C277.803 310.209 281.861 310.947 286.717 311.831C290.691 312.554 295.2 313.375 300.824 313.375C300.826 313.375 300.827 313.375 300.829 313.375C301.374 313.375 301.87 313.405 302.32 313.462L308.984 313.774C308.984 313.774 336.042 389.024 323.909 414.185H268.876Z" fill="#FF9B21"/>
<path fill-rule="evenodd" clip-rule="evenodd" d="M268.876 414.185C272.981 406.093 277.192 396.649 281.243 386.895C282.751 397.636 285.263 408.425 289.445 414.185H268.876Z" fill="black" fill-opacity="0.1"/>
<path fill-rule="evenodd" clip-rule="evenodd" d="M567.74 261.211C561.838 264.127 556.04 265.536 553.318 264.961C546.493 263.518 545.865 243.043 551.146 234.971C556.428 226.9 583.577 223.381 584.946 239.374C585.421 244.925 582.578 249.879 578.378 253.921L585.908 282.7H564.035L567.74 261.211Z" fill="#B28B67"/>
<path fill-rule="evenodd" clip-rule="evenodd" d="M556.074 229.649C556.575 229.404 557.624 228.886 558.155 228.699C558.28 228.654 559.16 228.139 559.184 228.146C559.85 228.33 561.779 229.01 561.945 229.598C561.97 229.643 561.995 229.685 562.02 229.721C562.293 230.129 562.544 230.546 562.783 230.969C563.308 231.897 563.762 232.866 564.195 233.828C565.038 235.702 565.77 237.619 566.443 239.541C567.129 241.497 567.711 243.477 568.362 245.441C569.3 248.267 570.499 251.025 571.43 253.85C572.025 255.654 572.355 257.48 572.199 259.336C572.198 259.359 572.197 259.381 572.194 259.403C572.193 259.413 572.192 259.422 572.191 259.431C572.164 259.717 572.126 260.003 572.076 260.29C572.032 260.535 571.988 260.781 571.94 261.028C571.09 259.637 570.441 258.105 569.752 256.651C569.685 256.509 569.62 256.366 569.558 256.222C569.335 255.927 569.109 255.634 568.88 255.342C567.436 253.503 565.986 251.671 564.601 249.798C562.11 246.431 559.642 242.992 556.689 239.899C555.817 238.986 554.924 238.087 554.063 237.166C553.573 236.642 553.096 236.11 552.634 235.567C552.304 235.18 550.869 233.828 551.388 233.016C551.654 232.601 554.775 230.285 556.074 229.649Z" fill="#2C2C2C"/>
<path fill-rule="evenodd" clip-rule="evenodd" d="M557.997 228.767C557.509 228.901 557.746 228.07 558.218 227.777C560.405 226.422 568.763 225.93 576.036 227.168C580.909 227.997 586.576 230.062 590.468 232.716C593.976 235.108 596.389 238.944 597.632 242.649C598.936 246.54 599.133 250.597 598.407 254.587C598.247 255.463 597.904 256.298 597.713 257.156C597.498 258.122 597.387 259.052 597.004 259.992C596.769 260.568 596.369 261.132 596.169 261.71C595.94 262.371 596.079 262.982 596.246 263.653C596.518 264.748 596.856 265.84 597.335 266.886C598.054 268.456 598.928 269.926 599.475 271.555C600.204 273.723 603.251 280.777 601.024 282.7H558.629C559.696 280.312 562.901 277.502 563.549 274.946C563.931 273.44 564.113 270.151 564.153 270.032C565.109 264.631 566.974 262.053 568.143 261.117C569.311 260.181 570.867 259.893 570.947 259.081C571.279 255.723 569.65 252.506 568.456 249.373C567.033 245.638 565.991 241.81 564.523 238.088C563.874 236.44 560.526 228.07 557.997 228.767Z" fill="#8991DC"/>
<path fill-rule="evenodd" clip-rule="evenodd" d="M574.46 244.693C574.804 239.009 574.46 236.789 572.861 232.629H573.847C575.405 234.28 576.709 239.329 575.244 244.693H574.46ZM593.779 244.425L593.779 244.425C593.951 244.08 594.127 243.727 594.309 243.364L594.936 243.611C592.958 249.542 590.553 254.12 582.294 257.958L581.652 257.589C589.463 253.086 591.138 249.725 593.779 244.425ZM582.068 237.332C581.985 237.846 581.906 238.347 581.829 238.836C580.642 246.35 579.889 251.114 573.271 259.755L574.021 259.943C581.276 251.93 582.426 245.389 582.768 237.378L582.068 237.332ZM589.213 261.686L589.855 262.325C586.641 262.877 584.455 264.815 581.95 267.037C579.299 269.388 576.291 272.057 571.326 273.737L570.405 273.279C575.823 270.969 578.344 268.673 580.545 266.668C582.823 264.593 584.759 262.829 589.213 261.686Z" fill="black" fill-opacity="0.2"/>
<path fill-rule="evenodd" clip-rule="evenodd" d="M600.46 345.807L566.216 437.788L549.627 516.013H536.62L554.149 345.807H600.46Z" fill="#997659"/>
<path fill-rule="evenodd" clip-rule="evenodd" d="M612.711 345.807C610.385 396.31 613.123 422.36 613.643 426.948C614.164 431.537 621.292 461.288 638.168 517.553L624.308 513.642C597.638 462.039 588.549 435.22 585.49 428.444C582.431 421.668 574.307 394.122 561.117 345.807H612.711Z" fill="#B28B67"/>
<path fill-rule="evenodd" clip-rule="evenodd" d="M635.586 512.734C636.577 512.375 637.698 512.792 638.12 513.758C638.772 515.254 639.592 517.379 639.592 518.598C639.592 520.62 638.772 524.5 638.772 524.5C635.916 524.5 587.445 524.5 587.445 524.5C587.445 524.5 585.444 519.066 589.755 518.633C594.065 518.199 596.917 517.85 596.917 517.85L620.79 509.106C621.267 508.931 621.8 509.142 622.028 509.596L623.518 512.566C623.518 512.566 627.509 514.096 630.003 514.096C631.536 514.096 633.951 513.327 635.586 512.734Z" fill="#E4E4E4"/>
<path fill-rule="evenodd" clip-rule="evenodd" d="M550.045 512.734C551.036 512.375 552.157 512.792 552.578 513.758C553.23 515.254 554.05 517.379 554.05 518.598C554.05 520.62 553.23 524.5 553.23 524.5C550.375 524.5 501.904 524.5 501.904 524.5C501.904 524.5 499.903 519.066 504.213 518.633C508.524 518.199 511.375 517.85 511.375 517.85L535.249 509.106C535.726 508.931 536.258 509.142 536.486 509.596L537.976 512.566C537.976 512.566 541.967 514.096 544.462 514.096C545.994 514.096 548.409 513.327 550.045 512.734Z" fill="#E4E4E4"/>
<path fill-rule="evenodd" clip-rule="evenodd" d="M605.01 345.807L590.45 392.671H545.977L552.608 345.807H605.01Z" fill="#69A1AC"/>
<path fill-rule="evenodd" clip-rule="evenodd" d="M613.201 345.807C620.387 363.505 615.931 392.671 615.931 392.671H570.548L558.068 345.807H613.201Z" fill="#89C5CC"/>
<path fill-rule="evenodd" clip-rule="evenodd" d="M662.72 369.378C659.322 365.291 636.421 310.291 636.421 310.291L616.669 312.63C616.669 312.63 649.509 369.902 651.385 372.566C653.822 376.026 651.664 381.711 650.2 385.565C649.974 386.161 649.764 386.714 649.59 387.207C652.662 387.933 653.831 386.493 655.064 384.976C656.456 383.261 657.929 381.447 662.316 382.541C664.011 382.964 665.639 383.506 667.23 384.037C672.726 385.869 677.774 387.552 683.574 383.613C684.494 382.988 685.269 380.947 682.347 379.758C675.068 376.796 664.381 371.376 662.72 369.378ZM492.504 366.536L514.571 343.175L525.123 354.223L500.737 370.116C495.544 379.48 492.266 383.645 490.901 382.611C489.751 381.74 490.016 380.609 490.26 379.567C490.45 378.756 490.628 377.999 490.113 377.46C488.939 376.231 483.733 377.613 478.861 379.096C473.989 380.58 474.806 378.425 475.693 377.247C479.907 373.561 485.51 369.99 492.504 366.536Z" fill="#B28B67"/>
<path fill-rule="evenodd" clip-rule="evenodd" d="M568.337 271.343L560.345 271.147C554.148 308.135 495.139 339.661 493.541 353.405C492.954 358.446 497.664 360.417 495.704 362.157L506.89 367.066C508.326 365.228 512.506 367.806 519.802 364.825C527.097 361.844 575.556 313.462 568.337 271.343Z" fill="#DB2721"/>
<path fill-rule="evenodd" clip-rule="evenodd" d="M580.582 262.38C582.751 262.002 584.962 263.438 585.519 265.586L586.378 268.899C602.651 276.458 643.79 299.908 662.096 350.277C664.018 355.568 662.713 358.672 661.67 361.151C660.956 362.847 660.365 364.252 661.014 365.865L648.253 370.394C648.044 369.172 646.211 368.435 643.847 367.484C640.409 366.102 635.848 364.267 633.517 359.831C631.308 355.627 628.234 350.411 624.639 344.629C625.777 352.704 625.181 360.32 622.17 366.917C614.658 383.377 553.229 373.355 544.437 358.459C539.746 350.51 543.18 342.988 547.722 333.038C553.488 320.408 561.038 303.869 556.02 277.585L554.317 271.021C553.76 268.873 555.067 266.825 557.237 266.447L580.582 262.38Z" fill="#FF4133"/>
<path fill-rule="evenodd" clip-rule="evenodd" d="M67.6277 415.138C88.1207 350.182 295.486 387.187 431.432 367.106C567.378 347.024 728.214 253.502 834.658 299.314C941.102 345.126 827.847 455.867 583.71 480.857C339.573 505.848 47.1347 480.094 67.6277 415.138Z" fill="#F2F2F2"/>
<g opacity="0.5">
<path fill-rule="evenodd" clip-rule="evenodd" d="M191.908 63.6724C190.335 65.2429 190.946 70.8244 190.913 72.8899C190.862 76.1055 191.063 79.2924 191.331 82.4964C191.512 84.6417 192.527 105.114 195.353 103.542C196.946 102.656 195.947 96.7336 195.944 94.8604C195.938 90.696 195.764 86.5417 195.487 82.3865C195.229 78.5289 195.067 74.7163 195.215 70.8513C195.251 69.908 196.134 59.4389 191.908 63.6724Z" fill="#89C5CC"/>
<path fill-rule="evenodd" clip-rule="evenodd" d="M260.409 61.1487C246.896 61.2563 233.388 61.9228 219.881 62.3312C213.381 62.5277 206.886 62.7776 200.394 63.1378C198.181 63.2606 193.436 62.5523 191.593 63.7311C187.501 66.3483 194.1 66.9601 195.859 66.8962C222.59 65.9269 249.329 64.6503 276.082 64.59C289.206 64.5608 302.323 64.9345 315.448 64.8506C320.465 64.8186 326.02 62.6571 327.287 68.4968C328.717 75.0865 327.074 82.4234 326.627 89.0451C326.329 93.4654 326.435 97.794 326.634 102.211C326.762 105.04 326.429 108.228 326.93 111.005C327.411 113.679 329.333 115.282 331.095 112.287C332.148 110.497 331.624 106.078 331.694 104.005C331.788 101.213 331.7 98.4212 331.7 95.6283C331.699 88.8115 332.661 82.0215 332.534 75.2061C332.452 70.8112 332.219 62.8439 326.676 61.7879C320.572 60.6249 313.069 61.7944 306.822 61.723C291.344 61.5464 275.892 61.0277 260.409 61.1487Z" fill="#89C5CC"/>
<path fill-rule="evenodd" clip-rule="evenodd" d="M223.174 103.786C218.078 103.786 212.982 103.817 207.887 103.901C203.517 103.973 196.647 103.063 192.58 104.626C189.795 105.696 189.056 108.805 192.58 109.633C196.423 110.536 202.215 109.059 206.237 108.989C226.4 108.633 246.758 108.169 266.894 109.444C285.762 110.638 304.993 111.797 323.888 110.536C325.478 110.43 333.586 110.107 329.886 107.068C327.728 105.294 318.979 106.46 316.174 106.376C306.28 106.077 296.376 106.011 286.485 105.636C276.723 105.265 267.004 104.168 257.238 103.896C245.893 103.58 234.523 103.786 223.174 103.786Z" fill="#89C5CC"/>
<path fill-rule="evenodd" clip-rule="evenodd" d="M218.075 74.8039C226.017 75.1506 233.875 86.6687 225.839 92.2354C218.3 97.4586 204.172 91.7343 208.364 81.6059C207.761 83.0703 209.126 80.0151 209.143 79.9947C209.94 79.0555 211.371 78.0158 212.354 77.2755C213.478 76.4282 214.649 75.4955 216.005 75.0709C216.895 74.7923 216.755 75.8409 218.075 74.8039ZM214.207 70.6497C210.49 72.101 208.794 73.7382 206.239 76.7007C204.472 78.751 202.219 79.8296 202.239 82.6002C202.243 83.2135 203.031 83.8875 203.167 84.478C203.355 85.2943 203.137 86.3401 203.286 87.2074C204.824 96.1565 215.501 99.1737 223.317 97.4841C230.125 96.0123 235.217 89.4769 233.64 82.3703C232.052 75.2165 221.444 67.8193 214.207 70.6497Z" fill="#89C5CC"/>
<path fill-rule="evenodd" clip-rule="evenodd" d="M210.896 83.1427C210.896 86.362 215.982 86.362 215.982 83.1427C215.982 79.96 210.896 79.8232 210.896 83.1427Z" fill="#89C5CC"/>
<path fill-rule="evenodd" clip-rule="evenodd" d="M217.258 82.491C217.258 85.0493 221.299 85.0493 221.299 82.491C221.299 79.9619 217.258 79.8539 217.258 82.491Z" fill="#89C5CC"/>
<path fill-rule="evenodd" clip-rule="evenodd" d="M218.51 87.7669C217.216 88.2643 215.574 87.2329 214.512 87.9124C212.631 89.1167 214.517 90.2065 215.525 90.6905C220.066 92.8691 220.873 86.8616 218.51 87.7669Z" fill="#89C5CC"/>
<path fill-rule="evenodd" clip-rule="evenodd" d="M287.85 80.6318C287.714 80.6892 287.233 80.8932 287.85 80.6318V80.6318ZM268.078 77.742C264.679 78.5092 261.81 81.6826 258.118 81.258C255.289 80.9326 253.373 78.2023 250.58 77.8055C247.007 77.2975 237.282 85.4484 242.395 86.8469C245.378 87.6632 247.033 82.212 249.668 81.9223C251.753 81.6933 254.588 84.2497 256.748 84.6136C260.778 85.2927 263.546 83.0728 267.083 81.6414C270.928 80.0857 273.115 81.4865 276.458 83.2155C279.097 84.5802 281.583 85.4688 284.602 84.9056C287.436 84.3776 290.997 81.4634 293.849 81.7623C296.643 82.0553 298.637 84.971 301.511 85.2417C302.696 85.3529 304.46 85.7567 304.261 83.9285C304.101 82.4646 302.468 82.7126 301.446 82.1805C298.818 80.8121 296.36 78.3882 293.189 78.595C290.803 78.7507 288.631 80.4269 286.433 81.2288C279.233 83.8548 275.185 76.1479 268.078 77.742Z" fill="#89C5CC"/>
<path fill-rule="evenodd" clip-rule="evenodd" d="M274.092 124.111C260.204 124.239 246.268 124.445 232.419 125.558C229.135 125.822 195.608 128.988 195.672 129.216C195.789 129.637 200.102 130.282 200.075 130.381C199.784 129.661 199.12 129.362 198.082 129.487C229.879 129.487 261.576 126.64 293.416 127.152C301.416 127.28 309.446 127.227 317.441 127.479C319.436 127.542 324.382 128.972 325.949 128.071C330.063 125.706 322.589 125.433 321.352 125.334C305.683 124.08 289.805 123.954 274.092 124.111Z" fill="#69A1AC"/>
<path fill-rule="evenodd" clip-rule="evenodd" d="M191.556 130.859C189.479 132.941 191.391 140.43 191.473 143.245C191.591 147.314 191.494 151.412 191.851 155.471C192.259 160.107 192.891 165.047 194.107 169.545C194.777 172.023 197.129 175.961 198.061 171.459C198.726 168.243 197.716 163.976 197.364 160.7C196.894 156.317 196.78 151.992 196.763 147.588C196.747 143.75 196.673 139.897 196.358 136.071C196.195 134.085 195.196 127.239 191.556 130.859Z" fill="#69A1AC"/>
<path fill-rule="evenodd" clip-rule="evenodd" d="M243.794 168.998C233.938 169.167 224.061 169.4 214.222 170.015C210.189 170.268 206.159 170.644 202.142 171.07C201.322 171.157 192.247 171.525 196.302 174.874C198.132 176.387 205.661 174.296 208.148 174.078C212.33 173.711 216.511 173.473 220.706 173.296C230.424 172.883 240.172 172.519 249.9 172.687C267.667 172.996 285.319 173.133 303.09 172.737C305.615 172.681 325.396 173.209 326.068 170.583C326.609 168.466 319.535 169.437 318.245 169.475C313.514 169.616 308.782 169.584 304.049 169.559C283.997 169.457 263.83 168.659 243.794 168.998Z" fill="#69A1AC"/>
<path fill-rule="evenodd" clip-rule="evenodd" d="M322.719 127.347C323.032 136.122 324.526 144.887 325.004 153.689C325.222 157.712 325.479 161.732 325.676 165.757C325.74 167.056 325.217 170.184 326.752 170.931C328.858 171.955 329.142 169.891 329.536 168.495C330.675 164.462 329.904 159.224 329.801 155.081C329.701 151.07 329.694 147.051 329.398 143.047C329.095 138.957 328.272 134.943 327.889 130.867C327.728 129.143 328.293 126.274 326.463 125.204C324.881 124.279 322.65 125.445 322.719 127.347Z" fill="#69A1AC"/>
<path fill-rule="evenodd" clip-rule="evenodd" d="M225.845 141.944C225.882 141.973 225.919 142.002 225.957 142.031C225.919 142.002 225.882 141.973 225.845 141.944ZM217.469 139.344C220.592 140.236 223.157 139.904 226.141 142.177C228.614 144.063 231.151 146.821 231.971 149.869C233.867 156.911 227.441 160.771 221.418 160.847C215.248 160.924 206.115 159.493 206.431 151.585C206.674 145.509 211.111 139.58 217.469 139.344ZM217.689 135.364C209.59 135.767 203.057 144.863 203.127 152.518C203.212 161.797 213.725 164.188 221.194 164.252C229.623 164.324 238.028 158.504 235.77 149.025C233.96 141.431 225.477 134.96 217.689 135.364Z" fill="#69A1AC"/>
<path fill-rule="evenodd" clip-rule="evenodd" d="M209.542 147.822C209.542 150.41 213.63 150.41 213.63 147.822C213.63 145.265 209.542 145.155 209.542 147.822Z" fill="#69A1AC"/>
<path fill-rule="evenodd" clip-rule="evenodd" d="M218.117 146.687C218.117 149.295 222.238 149.295 222.238 146.687C222.238 144.109 218.117 143.998 218.117 146.687Z" fill="#69A1AC"/>
<path fill-rule="evenodd" clip-rule="evenodd" d="M213.39 152.589C210.729 155.245 220.076 159.902 222.281 156.207C224.092 153.171 220.149 154.178 218.752 154.014C217.233 153.835 214.629 151.352 213.39 152.589Z" fill="#69A1AC"/>
<path fill-rule="evenodd" clip-rule="evenodd" d="M288.124 146.74C287.868 146.848 287.868 146.848 288.124 146.74V146.74ZM253.022 142.416C250.328 142.921 241.486 145.904 241.367 149.1C241.148 154.91 249.808 148.959 251.688 148.195C256.796 146.119 259.48 150.354 264.612 150.577C269.068 150.771 273.166 146.957 277.364 147.408C281.763 147.881 283.879 152.56 288.956 150.076C291.643 148.762 291.575 146.735 288.559 146.544C286.737 146.429 285.484 147.182 283.584 146.398C280.612 145.172 279.415 143.176 275.859 143.493C273.175 143.733 270.75 145.245 268.13 145.831C262.132 147.171 258.805 141.332 253.022 142.416Z" fill="#69A1AC"/>
<path fill-rule="evenodd" clip-rule="evenodd" d="M308.818 149.263C308.632 149.341 308.632 149.341 308.818 149.263V149.263ZM309.497 146.844C309.527 146.857 309.73 147.139 309.497 146.844V146.844ZM306.409 144.997C306.293 145.087 306.293 145.087 306.409 144.997V144.997ZM306.476 144.974C307.075 145.333 311.89 148.625 308.393 149.401C306.617 149.794 305.148 146.222 306.476 144.974ZM304.882 141.327C297.169 144.844 305.469 157.429 311.522 152.316C314.069 150.164 314.404 145.815 311.926 143.573C310.442 142.23 306.897 140.406 304.882 141.327Z" fill="#69A1AC"/>
<path fill-rule="evenodd" clip-rule="evenodd" d="M232.477 190.921C222.852 190.924 213.143 190.722 203.531 191.292C201.914 191.388 195.752 191.08 194.918 192.771C193.394 195.864 199.734 194.329 200.655 194.236C219.793 192.32 239.784 193.423 258.985 193.969C274.689 194.415 290.308 194.692 305.993 195.502C310.116 195.714 314.235 195.949 318.355 196.198C319.698 196.279 323.077 197.169 323.361 195.024C323.623 193.039 319.407 193.488 318.354 193.432C309.979 192.991 301.61 192.529 293.237 192.058C273.085 190.922 252.661 190.917 232.477 190.921Z" fill="#89C5CC"/>
<path fill-rule="evenodd" clip-rule="evenodd" d="M194.609 194.36C192.812 196.147 193.654 202.971 193.604 205.227C193.516 209.171 193.33 213.113 193.247 217.057C193.16 221.178 193.281 225.319 193.524 229.435C193.626 231.163 195.045 239.515 197.278 234.736C198.276 232.6 197.254 226.651 197.269 224.23C197.297 219.826 197.534 215.44 197.753 211.041C197.942 207.26 197.949 203.475 198.114 199.693C198.166 198.488 198.309 190.65 194.609 194.36Z" fill="#89C5CC"/>
<path fill-rule="evenodd" clip-rule="evenodd" d="M324.98 229.595C315.613 230.555 306.096 230.102 296.694 230.811C288.591 231.422 280.495 231.672 272.371 231.844C253.975 232.232 235.547 232.611 217.204 234.144C213.024 234.493 208.849 234.864 204.657 235.051C202.561 235.145 193.764 234.191 193.109 236.4C191.994 240.164 201.4 238.674 203.429 238.616C207.891 238.487 212.332 238.164 216.781 237.825C235.485 236.4 254.259 235.974 273.003 235.382C283.196 235.06 293.319 234.314 303.49 233.636C308.56 233.298 313.643 233.287 318.712 232.959C320.039 232.873 324.734 233.042 325.688 231.975C326.343 231.242 326.509 229.453 324.98 229.595Z" fill="#89C5CC"/>
<path fill-rule="evenodd" clip-rule="evenodd" d="M321.805 195C322.126 203.983 322.634 212.958 322.937 221.94C323.028 224.641 322.212 229.482 323.716 231.864C326.135 235.695 328.023 231.641 328.466 229.254C329.863 221.721 328.361 213.4 327.97 205.82C327.822 202.929 328.719 196.493 327.322 193.905C325.991 191.44 321.686 191.687 321.805 195Z" fill="#89C5CC"/>
<path fill-rule="evenodd" clip-rule="evenodd" d="M306.079 207.793C309.668 208.765 310.192 216.567 306.143 217.144C300.116 218.003 302.752 209.402 306.079 207.793ZM305.074 204.691C303.979 204.657 301.453 204.355 300.778 205.246C300.214 205.992 300.784 207.564 300.718 208.275C300.481 210.813 298.417 212.279 299.34 215.275C299.966 217.309 301.643 219.221 303.687 219.927C314.472 223.655 314.341 202.816 305.074 204.691Z" fill="#89C5CC"/>
<path fill-rule="evenodd" clip-rule="evenodd" d="M207.702 206.091C207.675 206.125 207.648 206.159 207.622 206.194C207.648 206.159 207.675 206.125 207.702 206.091ZM216.173 201.584C216.131 201.223 216.088 200.862 216.046 200.501C221.894 203.261 226.547 208.396 224.605 215.288C223.124 220.546 217.771 222.411 212.784 221.113C207.264 219.675 204.626 215.125 206.114 209.538C206.801 206.96 208.909 203.496 211.635 202.667C212.904 202.281 215.71 203.265 216.173 201.584ZM212.753 199.401C211.274 199.501 209.834 200.117 208.627 200.96C209.757 200.004 211.263 199.435 212.753 199.401ZM212.796 196.005C209.142 196.117 206.747 198.329 204.58 200.985C203.9 201.819 201.6 204.03 201.885 205.154C202.11 206.042 202.699 207.341 203.94 206.35C197.442 219.3 214.228 230.346 224.475 221.34C234.038 212.936 224.55 195.611 212.796 196.005Z" fill="#89C5CC"/>
<path fill-rule="evenodd" clip-rule="evenodd" d="M209.476 208.034C209.476 209.759 212.153 209.759 212.153 208.034C212.153 206.31 209.476 206.31 209.476 208.034Z" fill="#89C5CC"/>
<path fill-rule="evenodd" clip-rule="evenodd" d="M214.044 208.329C214.044 210.082 216.764 210.082 216.764 208.329C216.764 206.576 214.044 206.576 214.044 208.329Z" fill="#89C5CC"/>
<path fill-rule="evenodd" clip-rule="evenodd" d="M216.117 214.484C214.845 214.587 210.187 214.155 209.369 215.269C208.003 217.132 210.183 217.197 211.254 217.398C212.219 217.579 216.413 217.477 217.004 216.62C217.526 215.863 217.404 214.374 216.117 214.484Z" fill="#89C5CC"/>
<path fill-rule="evenodd" clip-rule="evenodd" d="M272.241 209.653C272.022 209.744 272.022 209.744 272.241 209.653V209.653ZM254.64 208.366C251.773 208.577 249.344 210.226 246.602 210.884C243.676 211.587 242.409 210.295 239.748 209.449C236.98 208.569 235.011 208.917 232.786 210.807C231.526 211.878 228.76 214.344 229.548 216.247C231.352 220.602 235.436 213.516 237.357 213.186C240.353 212.672 243.019 215.292 246.475 214.543C249.606 213.864 252.384 211.714 255.654 211.691C258.389 211.672 260.966 213.168 263.666 213.53C267.788 214.083 270.494 212.619 274.304 211.533C277.608 210.591 279.924 211.833 283.032 212.878C284.452 213.356 289.191 215.092 288.319 211.944C288.072 211.055 281.827 209.465 280.859 209.159C277.445 208.08 275.283 208.5 272.03 209.74C269.318 210.775 267.036 211.279 264.128 210.71C260.924 210.083 258.01 208.11 254.64 208.366Z" fill="#89C5CC"/>
</g>
<g opacity="0.5">
<path fill-rule="evenodd" clip-rule="evenodd" d="M386.575 64.0118C387.038 54.0554 387.674 44.1128 388.009 34.1503C388.176 29.2136 388.306 24.2764 388.432 19.3387C388.459 18.2393 388.488 17.1403 388.513 16.0408C388.594 12.3055 388.151 12 391.91 11.6684C408.679 10.1882 425.515 9.69761 442.304 8.35839C462.553 6.74327 482.907 5.62803 503.213 5.12814C512.236 4.90556 521.298 4.44462 530.323 4.72517C532.322 4.78731 536.247 4.26702 537.035 5.8214C537.375 6.49286 536.661 8.80356 536.571 9.57843C536.288 11.999 536.024 14.428 535.861 16.8606C534.901 31.208 535.473 45.9171 538.251 60.0471C531.734 56.3721 523.5 53.2109 515.904 53.8383C508.16 54.4778 502.367 58.9522 496.168 63.0705C492.662 65.3997 491.481 66.0123 487.983 63.7559C484.968 61.811 482.116 59.5875 479.272 57.4053C474.883 54.0373 470.741 50.3855 466.485 46.8548C458.66 40.3627 447.878 31.1222 437.07 33.8429C429.348 35.7868 422.218 40.0307 415.516 44.1842C405.558 50.3549 396.545 57.9116 386.575 64.0118ZM520.779 0.30363C482.306 0.30363 444.121 4.0333 405.756 6.05094C401.749 6.26146 397.756 6.57169 393.764 6.95704C391.103 7.21394 384.596 6.13533 382.852 8.40894C381.688 9.92575 382.688 10.1534 382.852 11.5947C383.058 13.411 382.936 15.5632 382.883 17.4857C382.755 22.1183 382.62 26.7503 382.515 31.3833C382.118 48.8933 381.869 66.4 382.578 83.9053C382.733 87.7231 384.124 93.009 383.363 96.7187C382.812 99.4045 380.97 101.039 385.218 101.535C389.398 102.024 394.509 100.781 398.693 100.383C402.901 99.9828 407.108 99.5483 411.321 99.201C429.638 97.6916 448.133 97.9197 466.499 97.418C485.029 96.9121 503.567 96.8796 522.104 96.8694C529.86 96.8652 538.723 97.3011 546.291 95.1666C548.953 94.4154 549.384 94.0454 548.727 91.4036C548.603 90.9023 547.799 90.7173 547.563 89.8112C547.242 88.5782 547.407 87.0794 547.332 85.7959C547.087 81.6039 547.001 77.4044 546.804 73.2096C546.474 66.201 545.266 59.3992 544.372 52.4611C543.341 44.4485 543.394 36.3131 543.373 28.2481C543.361 23.7747 543.476 19.316 543.835 14.8551C544.066 11.9939 545.475 7.72217 544.76 5.05395C544.404 3.7254 543.822 2.67183 542.439 2.10007C541.563 1.73744 540.826 2.02124 539.96 1.92942C538.933 1.82045 538.292 1.67623 537.062 1.39754C531.789 0.20254 526.151 0.30363 520.779 0.30363Z" fill="#69A1AC"/>
<path fill-rule="evenodd" clip-rule="evenodd" d="M499.487 19.3523C499.484 22.1406 499.049 26.2552 500.335 28.8807C501.965 32.2111 504.005 31.1701 504.545 28.0405C504.855 26.2473 504.847 20.9405 504.271 19.3523C503.456 17.1042 499.487 15.573 499.487 19.3523Z" fill="#89C5CC"/>
<path fill-rule="evenodd" clip-rule="evenodd" d="M504.166 20.429C501.548 20.5213 493.924 19.8929 492.153 21.9977C489.115 25.6078 494.404 26.2472 496.675 26.0451C499.303 25.8113 507.423 26.3817 509.183 24.2746C512.127 20.7494 506.224 20.3539 504.166 20.429Z" fill="#89C5CC"/>
<path fill-rule="evenodd" clip-rule="evenodd" d="M402.583 113.579C414.091 115.578 410.511 133.124 399.621 129.06C395.827 127.644 390.237 123.552 392.334 118.731C393.9 115.129 399.006 113.236 402.583 113.579ZM397.818 108.124C390.334 109.383 385.217 117.483 387.783 124.547C390.259 131.363 399.648 136.354 406.573 133.905C413.183 131.566 416.481 122.771 414.253 116.337C411.924 109.614 404.338 107.026 397.818 108.124Z" fill="#89C5CC"/>
<path fill-rule="evenodd" clip-rule="evenodd" d="M467.816 115.632C464.951 115.87 462.475 117.876 459.592 118.231C456.896 118.563 454.662 117.64 452.138 116.903C449.087 116.012 446.289 115.621 443.171 116.412C440.789 117.017 438.439 118.638 435.964 118.834C431.094 119.219 425.434 113.662 421.632 119.947C419.809 122.959 422.456 124.9 425.182 123.495C428.024 122.03 426.629 121.506 430.155 122.371C433.096 123.092 435.474 123.484 438.42 122.473C441.089 121.558 443.432 119.883 446.333 119.694C449.174 119.51 451.645 120.804 454.36 121.362C457.699 122.049 460.653 121.529 463.817 120.483C466.826 119.487 468.027 118.943 471.064 119.831C472.986 120.393 477.187 122.18 479.058 120.74C482.294 118.251 477.962 117.887 476.256 117.533C473.509 116.964 470.667 115.398 467.816 115.632Z" fill="#89C5CC"/>
<path fill-rule="evenodd" clip-rule="evenodd" d="M533.384 113.959C533.407 113.977 533.43 113.995 533.452 114.012C533.43 113.995 533.406 113.977 533.384 113.959ZM530.571 113.371C534.754 113.64 539.277 121.26 533.735 121.531C529.834 121.721 525.469 115.049 530.571 113.371ZM529.984 107.136C516.758 110.829 522.804 129.477 535.562 127.323C541.357 126.344 543.321 119.631 541.405 114.661C540.582 112.527 538.978 110.727 537.061 109.499C535.647 108.592 531.601 106.686 529.984 107.136Z" fill="#89C5CC"/>
<path fill-rule="evenodd" clip-rule="evenodd" d="M468.276 146.065C479.915 145.666 491.555 145.266 503.206 145.158C509.52 145.1 515.8 145.21 522.105 145.572C524.902 145.732 527.696 145.887 530.495 146.005C530.977 146.026 531.644 145.993 532.38 145.957C534.112 145.872 536.227 145.768 537.222 146.294C542.788 149.238 531.448 149.561 530.07 149.538C526.983 149.486 523.899 149.333 520.815 149.181C518.12 149.048 515.425 148.915 512.727 148.848C495.42 148.423 478.008 149.201 460.671 149.975C456.697 150.152 452.727 150.33 448.763 150.492C444.554 150.665 440.347 150.777 436.14 150.888C430.125 151.048 424.111 151.208 418.097 151.546C415.801 151.675 413.505 151.811 411.208 151.948C407.919 152.144 404.63 152.34 401.339 152.513C398.763 152.649 396.186 152.781 393.607 152.846C393.142 152.857 392.537 152.922 391.876 152.992L391.876 152.992H391.876C390.277 153.163 388.353 153.368 387.313 152.943C386.063 152.432 385.052 151.717 385.739 150.201C386.321 148.92 388.434 149.074 389.974 149.186C390.395 149.217 390.773 149.244 391.065 149.238C395.989 149.143 400.902 148.866 405.817 148.565C407.615 148.455 409.412 148.342 411.209 148.229L411.21 148.229L411.21 148.229L411.21 148.229L411.21 148.229C420.567 147.641 429.915 147.053 439.295 146.893C448.959 146.728 458.617 146.396 468.276 146.065ZM529.065 222.668L532.411 222.628C534.139 222.778 534.912 224.592 533.803 225.986C532.953 227.054 529.684 227.102 527.553 227.133C526.962 227.142 526.459 227.15 526.119 227.177C520.556 227.624 515.004 227.825 509.424 227.879C497.674 227.99 485.968 228.494 474.237 229.163C462.229 229.848 450.211 230.105 438.192 230.363H438.191C429.349 230.552 420.506 230.742 411.667 231.101C406.605 231.307 401.542 231.461 396.478 231.594C395.934 231.608 395.21 231.686 394.391 231.774C391.192 232.12 386.544 232.622 385.491 230.081C384.556 227.827 385.855 226.789 387.755 226.317C387.455 224.982 387.511 223.106 387.543 222.031C387.552 221.708 387.56 221.457 387.555 221.315C387.507 219.968 387.473 218.62 387.44 217.272C387.402 215.745 387.365 214.218 387.306 212.691C387.253 211.306 387.203 209.919 387.153 208.531C386.957 203.059 386.761 197.573 386.34 192.123C386.145 189.607 385.837 187.121 385.529 184.639C385.038 180.676 384.547 176.723 384.525 172.678C384.521 171.95 384.484 171.04 384.443 170.013C384.233 164.761 383.901 156.457 387.161 153.928C392.91 150.573 391.774 160.256 391.266 164.577C391.183 165.291 391.116 165.858 391.1 166.197C390.77 173.382 391.218 180.252 391.942 187.392C392.43 192.214 392.145 197.02 391.859 201.834C391.757 203.553 391.655 205.273 391.588 206.996C391.555 207.848 391.526 208.7 391.496 209.551C391.406 212.172 391.315 214.791 391.118 217.409C391.096 217.692 391.089 218.235 391.08 218.929C391.054 220.886 391.013 224.044 390.594 225.961C391.486 225.922 392.352 225.932 393.067 225.94C393.523 225.945 393.917 225.949 394.219 225.94C395.591 225.898 396.964 225.858 398.337 225.818C402.39 225.699 406.444 225.58 410.497 225.428C420.065 225.068 429.636 224.948 439.207 224.828C450.512 224.686 461.816 224.544 473.115 224.007C491.737 223.122 510.423 222.895 529.065 222.668ZM532.519 152.42C532.509 164.729 533.461 176.7 534.573 188.96C535.261 196.543 535.812 204.155 536.251 211.757C536.272 212.109 536.268 212.696 536.265 213.432V213.433C536.242 217.637 536.194 226.695 540.349 224.528C543.486 222.892 542.28 213.405 541.613 208.155L541.613 208.155C541.467 207.004 541.346 206.056 541.303 205.44C541.212 204.127 541.122 202.814 541.032 201.502C540.614 195.408 540.197 189.318 539.647 183.231L539.531 181.947C538.895 174.917 538.259 167.891 538.146 160.827C538.137 160.243 538.193 159.43 538.257 158.51C538.44 155.851 538.685 152.31 537.58 150.898C536.026 148.911 532.522 149.498 532.519 152.42Z" fill="#69A1AC"/>
<path fill-rule="evenodd" clip-rule="evenodd" d="M468.808 182.595C483.674 175.869 498.714 169.065 514.174 164.22C515.291 163.87 515.998 165.022 515.744 165.989C515.482 166.985 513.064 167.835 511.46 168.399C510.98 168.568 510.573 168.711 510.319 168.824C508.16 169.789 505.995 170.741 503.83 171.694C501.613 172.669 499.396 173.645 497.185 174.633C492.587 176.687 487.985 178.733 483.383 180.778C478.454 182.968 473.526 185.158 468.603 187.36C468.416 187.443 468.229 187.527 468.043 187.61C474.737 189.989 481.393 192.474 488.02 195.035C490.285 195.909 492.542 196.803 494.799 197.696C496.076 198.201 497.352 198.706 498.631 199.208C499.047 199.371 499.772 199.593 500.643 199.859C503.481 200.725 507.871 202.066 508.196 203.42C508.724 205.626 502.662 203.492 500.376 202.687C500.072 202.58 499.835 202.497 499.689 202.45C496.314 201.371 492.98 200.17 489.648 198.969L489.187 198.802C486.545 197.851 483.908 196.889 481.271 195.927C476.119 194.049 470.968 192.17 465.788 190.368C465.056 190.113 464.323 189.859 463.59 189.606C455.278 193.34 446.982 197.109 438.714 200.938C434.28 202.992 429.871 205.093 425.473 207.222C424.513 207.687 423.325 208.405 422.033 209.186C418.939 211.056 415.255 213.283 412.721 213.227C411.362 213.197 410.446 212.906 410.304 211.259C410.158 209.559 412.339 208.668 413.907 208.027C414.282 207.873 414.622 207.734 414.887 207.602C419.587 205.251 424.316 202.96 429.059 200.698C438.479 196.205 447.987 191.891 457.529 187.663C457.583 187.639 457.638 187.615 457.693 187.59C452.401 185.8 447.095 184.051 441.777 182.34C441.246 182.169 440.157 181.868 438.726 181.471C431.965 179.599 417.563 175.61 418.204 173.28C418.939 170.615 432.442 175.486 438.419 177.643C439.54 178.047 440.396 178.356 440.854 178.502C448.001 180.779 455.128 183.121 462.218 185.57C464.411 184.585 466.608 183.591 468.808 182.595Z" fill="#89C5CC"/>
<path fill-rule="evenodd" clip-rule="evenodd" d="M405.108 241.133C409.459 241.896 412.529 246.071 412.052 250.442C411.406 256.349 405.519 259.056 400.08 258.286C393.909 257.411 392.611 252.194 395.601 247.176C396.263 246.065 397.024 244.735 398.228 244.15C399.055 243.748 400.109 244.103 400.775 243.779C403.111 242.643 401.706 240.831 405.108 241.133ZM403.126 237.275C397.816 237.953 388.004 244.098 388.501 250.246C388.932 250.959 389.58 251.25 390.445 251.121C390.237 252.453 390.305 253.77 390.649 255.074C391.153 256.766 392.159 258.153 393.508 259.254C396.285 261.524 400.081 262.081 403.539 261.683C409.996 260.941 415.084 256.528 415.447 249.812C415.801 243.257 410.079 236.397 403.126 237.275Z" fill="#89C5CC"/>
<path fill-rule="evenodd" clip-rule="evenodd" d="M428.846 245.275C426.463 246.537 422.694 248.477 421.297 250.875C419.821 253.408 421.349 256.179 424.459 254.981C426.928 254.03 428.498 251.007 431.132 250.039C433.456 249.184 434.392 249.62 436.849 250.471C439.38 251.348 441.592 252.196 444.328 251.98C447.767 251.71 450.745 249.716 454.111 249.263C456.945 248.88 459.282 249.983 461.996 250.422C465.145 250.931 467.204 249.739 470.15 249.118C472.154 248.696 475.686 250.414 477.148 249.771C480.434 248.326 476.957 246.56 475.138 245.976C472.073 244.993 470.187 245.86 467.272 246.675C464.107 247.561 462.74 246.895 459.714 246.082C453.593 244.438 448.864 248.414 443.062 247.691C437.691 247.022 434.476 242.293 428.846 245.275Z" fill="#89C5CC"/>
<path fill-rule="evenodd" clip-rule="evenodd" d="M528.935 242.336C534.827 247.86 528.208 255.719 521.712 251.304C519.426 249.751 519.389 247.255 521.168 245.022C522.796 242.98 526.371 242.184 528.935 242.336ZM526.751 237.872C521.247 238.943 516.054 241.469 515.556 247.822C515.07 254.02 521.428 256.899 526.769 256.493C538.76 255.579 537.893 235.718 526.751 237.872Z" fill="#89C5CC"/>
</g>
<path opacity="0.5" fill-rule="evenodd" clip-rule="evenodd" d="M706.472 87.2632C700.939 87.329 687.274 88.5678 685.243 92.5967C683.701 95.655 688.281 94.9835 690.736 93.8707C694.058 92.3659 696.97 91.4653 701.085 91.0074C716.761 89.2622 731.824 95.5206 747.349 96.3121C753.231 96.6119 760.328 96.8073 765.943 95.635C769.942 94.8002 770.464 92.98 765.9 92.7027C762.023 92.4672 757.732 93.2095 753.757 93.1883C737.308 93.1018 722.686 87.0728 706.472 87.2632Z" fill="#C1DEE2"/>
<g opacity="0.5">
<path fill-rule="evenodd" clip-rule="evenodd" d="M194.509 279.362C186.085 279.456 177.665 279.767 169.257 280.299C161.262 280.806 152.587 280.421 144.722 281.971C142.488 282.411 139.471 284.446 142.441 286.685C144.528 288.259 152.165 286.449 154.657 286.295C163.836 285.731 173.02 285.055 182.212 284.731C190.914 284.423 199.615 284.315 208.322 284.228C209.651 284.215 211.857 283.789 213.181 284.175C215.083 284.729 214.632 284.88 214.774 287.294C215.032 291.668 214.961 296.058 214.874 300.436C214.79 304.673 214.634 308.909 214.649 313.148C214.659 316.172 213.693 322.181 215.21 324.807C217.394 328.588 219.66 324.482 219.823 321.97C220.136 317.165 219.996 312.302 219.997 307.491C219.998 302.976 220.031 298.46 219.872 293.947C219.756 290.687 220.222 284.996 218.466 282.032C216.677 279.013 212.371 279.664 209.228 279.52C204.326 279.295 199.415 279.311 194.509 279.362Z" fill="#89C5CC"/>
<path fill-rule="evenodd" clip-rule="evenodd" d="M140.91 284.81C140.919 293.294 139.937 301.722 139.662 310.196C139.536 314.093 139.28 318.371 140.266 322.196C141.261 326.058 144.421 326.895 144.785 322.583C145.522 313.853 145.342 304.8 145.915 295.999C146.118 292.892 147.437 287.198 146.206 284.288C145.122 281.725 140.905 281.234 140.91 284.81Z" fill="#89C5CC"/>
<path fill-rule="evenodd" clip-rule="evenodd" d="M219.906 322.207C205.276 324.144 189.982 323.438 175.247 323.742C168.178 323.889 161.111 323.898 154.041 323.972C151.573 323.997 145.307 323.059 143.173 324.446C139.775 326.654 143.461 328.358 145.711 328.406C159.663 328.712 173.771 328.071 187.72 327.613C193.987 327.407 200.275 327.306 206.526 326.774C210.374 326.446 214.579 326.128 218.316 325.094C219.112 324.873 220.846 324.919 221.024 323.833C221.134 323.162 220.935 322.065 219.906 322.207Z" fill="#89C5CC"/>
<path fill-rule="evenodd" clip-rule="evenodd" d="M159.07 334.54C155.004 334.564 142.751 332.675 141.067 336.64C138.822 341.928 147.58 340.694 149.935 340.633C155.285 340.496 160.63 340.481 165.981 340.484C171.231 340.486 176.481 340.452 181.73 340.327C183.251 340.291 186.791 340.922 187.666 339.09C188.331 337.699 187.805 336.601 186.579 335.864C183.628 334.091 175.963 335.119 172.509 334.959C168.036 334.754 163.548 334.54 159.07 334.54Z" fill="#89C5CC"/>
<path fill-rule="evenodd" clip-rule="evenodd" d="M208.537 335.519C206.213 335.657 201.513 334.699 199.431 335.763C197.065 336.972 197.899 338.864 199.941 339.696C201.356 340.272 207.159 339.97 208.537 339.303C209.973 338.607 211.597 335.331 208.537 335.519Z" fill="#89C5CC"/>
<path fill-rule="evenodd" clip-rule="evenodd" d="M234.013 285.643C231.531 286.324 232.284 300.414 232.22 302.647C232.045 308.767 231.357 316.464 233.39 322.358C234.687 326.115 237.178 325.605 236.753 321.65C236.381 318.178 235.741 314.746 235.464 311.252C234.839 303.344 233.987 294.91 234.578 286.997C234.83 287.457 237.184 291.722 237.738 291.403C237.571 291.503 235.023 285.376 234.013 285.643Z" fill="#89C5CC"/>
<path fill-rule="evenodd" clip-rule="evenodd" d="M261.93 280.453C256.907 280.528 251.885 280.617 246.864 280.756C242.871 280.867 236.598 280.211 232.937 281.891C228.577 283.89 230.645 288.345 234.74 288.439C238.363 288.523 242.226 287.706 245.881 287.581C255.754 287.242 265.645 287.171 275.522 287.086C284.456 287.009 293.769 287.962 302.624 286.62C303.937 298.283 300.385 309.995 301.593 321.792C301.78 323.623 301.696 326.21 304.028 326.627C306.971 327.154 307.092 324.239 307.203 322.152C307.522 316.193 307.349 310.229 307.786 304.262C308.19 298.732 308.986 293.081 308.313 287.542C307.486 280.727 304.22 281.273 298.447 280.99C286.254 280.392 274.137 280.274 261.93 280.453Z" fill="#89C5CC"/>
<path fill-rule="evenodd" clip-rule="evenodd" d="M245.098 321.866C242.538 321.931 238.288 321.142 236.648 323.596C234.942 326.15 236.966 328.377 239.447 328.901C242.384 329.521 246.213 328.671 249.261 328.662C252.435 328.652 255.61 328.688 258.784 328.7C272.392 328.753 286.058 328.959 299.657 328.397C301.556 328.318 306.946 328.955 308.26 327.133C309.426 325.518 308.61 324.069 307.074 323.246C304.554 321.895 299.378 322.409 296.575 322.302C293.113 322.17 289.646 322.127 286.183 322.073C272.511 321.862 258.768 321.528 245.098 321.866Z" fill="#89C5CC"/>
<path fill-rule="evenodd" clip-rule="evenodd" d="M256.609 333.67C251.517 333.757 246.083 333.534 241.041 334.306C236.608 334.985 236.062 339.271 240.834 339.772C245.22 340.233 250.537 339.372 254.944 339.089C256.509 338.988 258.329 339.131 259.079 337.401C259.862 335.593 258.365 333.859 256.609 333.67Z" fill="#89C5CC"/>
<path fill-rule="evenodd" clip-rule="evenodd" d="M295.108 334.12C292.39 334.188 284.451 333.019 283.104 336.124C280.863 341.292 291.611 339.329 293.673 339.253C296.272 339.157 306.4 340.675 306.402 336.538C306.404 332.481 297.597 334.059 295.108 334.12Z" fill="#89C5CC"/>
<path fill-rule="evenodd" clip-rule="evenodd" d="M140.47 359.804C140.477 369.206 139.891 378.697 140.749 388.076C141.104 391.955 141.043 399.386 143.29 402.674C144.885 405.008 147.097 404.845 147.968 402.042C148.55 400.168 147.619 396.421 147.515 394.416C147.415 392.493 147.298 390.57 147.209 388.645C146.98 383.688 146.999 378.739 147.067 373.779C147.125 369.524 148.149 363.895 147.184 359.804C146.283 355.991 140.47 355.099 140.47 359.804Z" fill="#69A1AC"/>
<path fill-rule="evenodd" clip-rule="evenodd" d="M234.967 351.532C218.654 351.941 202.304 351.576 186.006 352.383C177.968 352.781 169.961 353.656 161.963 354.527C158.034 354.956 154.107 355.398 150.185 355.881C149.001 356.027 139.166 356.408 142.865 360.148C144.48 361.782 149.621 360.076 151.654 359.835C155.593 359.37 159.539 358.965 163.482 358.548C170.987 357.754 178.5 357.002 186.037 356.585C203.786 355.601 221.609 355.896 239.375 355.241C244.181 355.064 248.973 354.937 253.781 355.126C255.044 355.175 264.321 355.647 260.293 352.22C258.388 350.6 251.207 351.436 248.827 351.387C244.207 351.292 239.585 351.416 234.967 351.532Z" fill="#69A1AC"/>
<path fill-rule="evenodd" clip-rule="evenodd" d="M257.205 367.373C257.125 363.029 257.044 358.685 256.846 354.344C256.638 349.773 262.865 349.081 264.711 352.781C266.041 355.445 265.807 359.977 265.606 363.862C265.526 365.427 265.45 366.888 265.485 368.078C265.564 370.806 265.765 373.628 265.968 376.486C266.48 383.68 267.009 391.111 265.664 397.902C265.01 401.202 262.227 402.936 260.374 401.138C260.371 401.141 260.369 401.145 260.366 401.149C259.669 402.176 257.5 402.174 255.902 402.172C255.462 402.172 255.065 402.171 254.755 402.192C250.378 402.49 246.082 402.992 241.743 403.642C233.099 404.938 224.53 405.734 215.793 405.95C209.864 406.097 203.927 406.146 197.989 406.196C186.617 406.29 175.24 406.384 163.904 407.162C160.083 407.425 156.319 407.875 152.56 408.594C152.24 408.655 151.884 408.734 151.506 408.819C148.711 409.44 144.664 410.34 144.388 406.434C144.059 401.798 154.107 401.19 159.278 400.878C160.068 400.83 160.744 400.789 161.251 400.742C176.952 399.282 192.899 399.508 208.666 399.732C209.43 399.742 210.194 399.753 210.957 399.764C212.187 399.781 213.417 399.801 214.647 399.821C221.398 399.933 228.141 400.044 234.889 399.631C237.961 399.443 241.072 399.346 244.189 399.25C249.162 399.096 254.149 398.941 259.013 398.414C258.279 395.57 258.151 392.214 258.03 389.051C257.983 387.819 257.937 386.617 257.857 385.485C257.43 379.456 257.317 373.415 257.205 367.373Z" fill="#69A1AC"/>
<path fill-rule="evenodd" clip-rule="evenodd" d="M270.408 357.693C268.204 357.992 266.366 359.879 267.35 362.271C268.589 365.283 272.28 364.106 274.718 363.915C282.468 363.308 290.56 364.521 298.217 363.606C300.308 363.356 303.341 362.217 301.464 359.407C300.053 357.296 294.911 357.666 292.725 357.464C285.25 356.772 277.873 356.957 270.408 357.693Z" fill="#C1DEE2"/>
<path fill-rule="evenodd" clip-rule="evenodd" d="M283.488 370.834C280.483 371.036 273.486 370.877 272.219 374.297C269.947 380.432 278.846 378.27 281.556 377.921C284.703 377.516 292.124 378.601 293.8 375.549C296.796 370.091 286.124 370.652 283.488 370.834Z" fill="#C1DEE2"/>
<path fill-rule="evenodd" clip-rule="evenodd" d="M275.759 384.298C274.333 385.724 274.331 388.271 275.759 389.698C277.507 391.445 281.317 391.082 283.614 391.209C286.818 391.388 296.021 393.083 297.612 389.31C299.759 384.219 291.425 384.326 288.684 384.037C285.516 383.704 278.385 381.671 275.759 384.298Z" fill="#C1DEE2"/>
<path fill-rule="evenodd" clip-rule="evenodd" d="M163.437 297.159C163.437 302.632 171.985 302.632 171.985 297.159C171.985 291.715 163.437 291.632 163.437 297.159Z" fill="#89C5CC"/>
<path fill-rule="evenodd" clip-rule="evenodd" d="M179.651 297.221C179.651 303.478 189.388 303.465 189.388 297.221C189.388 290.986 179.651 290.922 179.651 297.221Z" fill="#89C5CC"/>
<path fill-rule="evenodd" clip-rule="evenodd" d="M169.842 305.54C165.11 306.847 169.47 310.858 171.667 311.774C175.16 313.23 179.927 314.304 183.42 312.12C184.81 311.251 185.938 310.097 184.92 308.411C183.834 306.615 182.349 307.414 180.696 307.579C178.603 307.79 176.911 307.757 174.89 307.086C173.381 306.585 171.488 305.087 169.842 305.54Z" fill="#89C5CC"/>
<path fill-rule="evenodd" clip-rule="evenodd" d="M255.69 297.505C255.69 301.207 261.438 301.207 261.438 297.505C261.438 293.803 255.69 293.803 255.69 297.505Z" fill="#89C5CC"/>
<path fill-rule="evenodd" clip-rule="evenodd" d="M268.402 298.062C268.402 302.175 274.788 302.176 274.788 298.062C274.788 293.949 268.402 293.949 268.402 298.062Z" fill="#89C5CC"/>
<path fill-rule="evenodd" clip-rule="evenodd" d="M267.929 306.988C264.575 307.421 254.873 308.404 254.33 312.539C253.493 318.918 264.123 313.755 266.549 313.254C269.64 312.616 272.399 312.783 275.484 312.907C277.178 312.974 279.431 313.249 279.253 310.669C278.962 306.432 270.861 306.612 267.929 306.988Z" fill="#89C5CC"/>
<path fill-rule="evenodd" clip-rule="evenodd" d="M183.592 365.814C181.16 366.463 177.98 370.666 179.653 373.239C182.396 377.458 183.605 370.98 184.753 370.356C186.842 369.222 188.537 373.368 190.72 371.193C194.164 367.761 185.76 365.234 183.592 365.814Z" fill="#69A1AC"/>
<path fill-rule="evenodd" clip-rule="evenodd" d="M211.45 362.696C208.567 362.722 202.48 366.804 202.049 369.818C201.793 371.609 202.98 373.33 204.911 373.354C207.54 373.386 208.375 369.968 210.654 369.253C213.112 368.482 212.747 370.258 214.87 371.178C216.424 371.852 218.367 371.57 218.907 369.66C219.925 366.057 214.413 362.639 211.45 362.696Z" fill="#69A1AC"/>
<path fill-rule="evenodd" clip-rule="evenodd" d="M189.38 379.954C184.768 382.656 192.356 388.449 194.987 389.174C198.958 390.267 206.951 388.226 207.893 383.375C208.267 381.444 207.059 379.695 204.929 380.041C203.174 380.326 202.049 382.527 200.424 383.315C198.23 384.378 196.28 384.306 194.417 382.705C192.898 381.4 192.085 378.376 189.38 379.954Z" fill="#69A1AC"/>
<path fill-rule="evenodd" clip-rule="evenodd" d="M192.722 419.885C188.602 420.764 184.413 420.174 180.273 421.001C176.051 421.843 173.528 423.438 169.606 421.831C169.421 421.753 169.237 421.676 169.053 421.598C166.017 420.29 162.835 419.903 159.658 421.987C157.777 423.22 152.068 427.486 152.756 430.089C154.247 435.732 160.671 426.883 162.309 426.021C165.433 424.376 167.574 426.477 170.79 427.07C174.642 427.78 177.741 425.745 181.37 424.934C185.613 423.986 190.387 423.656 194.705 423.148C196.41 422.948 202.871 424.297 203.454 422.174C204.456 418.528 194.342 419.542 192.722 419.885Z" fill="#C1DEE2"/>
<path fill-rule="evenodd" clip-rule="evenodd" d="M222.449 431.25C222.719 431.454 222.503 431.29 222.449 431.25V431.25ZM233.989 419.665C237.517 419.307 248.802 416.787 251.12 420.432C252.629 422.806 250.234 431.568 247.949 432.702C246.122 433.607 241.869 432.606 239.865 432.535C236.136 432.404 232.4 432.346 228.675 432.113C227.426 432.035 223.407 432.265 222.428 431.159C221.272 429.854 221.323 422.895 221.051 421.169C224.294 422.219 230.598 420.009 233.989 419.665ZM241.521 416.091C237.004 416.287 232.487 416.626 228.003 417.232C225.504 417.57 222.971 418.468 220.663 418.894C219.919 419.031 218.711 418.65 217.799 419.091C215.132 420.379 217.467 429.089 218.11 431.415C219.098 434.99 221.583 435.569 225.066 435.905C229.653 436.35 234.334 436.21 238.936 436.154C243.371 436.099 249.352 437.082 251.841 432.632C253.45 429.754 255.175 423.053 253.8 419.846C251.991 415.626 245.236 415.935 241.521 416.091Z" fill="#C1DEE2"/>
<path fill-rule="evenodd" clip-rule="evenodd" d="M292.111 433.643C291.869 433.954 291.869 433.954 292.111 433.643V433.643ZM293.101 432.45C293.026 432.563 292.679 432.93 293.101 432.45V432.45ZM282.327 432.122C284.319 431.748 286.311 431.377 288.304 431.013C286.417 433.656 284.428 432.563 281.203 432.333C281.578 432.263 281.953 432.193 282.327 432.122ZM272.826 431.187C273.331 431.018 273.836 430.849 274.341 430.681C274.325 431.065 274.408 431.425 274.588 431.76C273.724 431.666 272.861 431.566 271.998 431.46C272.274 431.369 272.551 431.278 272.826 431.187ZM268.424 427.936C268.396 427.243 269.438 427.719 270.036 427.672C268.884 428.686 268.346 428.774 268.424 427.936ZM284.169 420.072C284.321 419.878 284.522 419.888 284.772 420.101C284.499 420.192 283.449 420.638 284.169 420.072ZM294.38 418.871C294.407 418.871 294.974 419.636 294.38 418.871V418.871ZM294.094 418.62C294.242 418.733 294.242 418.733 294.094 418.62V418.62ZM292.819 418.471C294.907 418.823 294.748 421.274 292.819 418.471V418.471ZM268.291 418.304C267.867 418.656 268.012 418.315 268.291 418.304V418.304ZM276.275 413.088C272.73 413.294 266.224 413.086 263.264 414.975C259.401 417.44 261.434 425.926 261.779 429.646C262.29 435.144 264.877 436.71 270.056 437.287C276.236 437.976 282.585 438.104 288.797 437.941C294.391 437.794 297.577 435.87 298.602 429.98C298.916 428.177 299.712 425.389 299.687 423.663C299.67 422.466 299.073 421.92 298.847 420.902C297.563 415.105 295.414 414.417 289.473 414.165C285.1 413.979 280.566 412.863 276.275 413.088Z" fill="#89C5CC"/>
</g>
<g opacity="0.5">
<path fill-rule="evenodd" clip-rule="evenodd" d="M464.032 279.913C473.044 280.105 483.268 285.093 481.843 295.659C480.799 303.399 474.098 309.683 466.336 310.224C457.994 310.806 449.174 304.404 448.041 295.911C446.766 286.357 455.22 279.722 464.032 279.913ZM459.613 275.612C455.959 276.157 452.468 278.076 449.251 279.794C448.023 280.451 441.798 284.452 446.681 285.446C434.916 304.42 462.603 322.043 478.17 309.712C485.161 304.174 488.841 293.675 484.322 285.457C479.649 276.958 468.566 274.267 459.613 275.612Z" fill="#89C5CC"/>
<path fill-rule="evenodd" clip-rule="evenodd" d="M457.459 291.762C457.459 295.306 462.96 295.306 462.96 291.762C462.96 288.218 457.459 288.218 457.459 291.762Z" fill="#89C5CC"/>
<path fill-rule="evenodd" clip-rule="evenodd" d="M467.657 292.33C467.657 296.172 473.621 296.172 473.621 292.33C473.621 288.488 467.657 288.488 467.657 292.33Z" fill="#89C5CC"/>
<path fill-rule="evenodd" clip-rule="evenodd" d="M460.775 299.928C459.973 302.842 469.123 304.337 469.428 300.964C469.573 299.352 461.333 297.894 460.775 299.928Z" fill="#89C5CC"/>
<path fill-rule="evenodd" clip-rule="evenodd" d="M487.599 298.126C498.129 296.863 508.985 297.447 519.565 297.75C522.213 297.826 524.86 297.9 527.509 297.944C529.192 297.973 532.828 298.781 534.298 297.993C540.315 294.766 528.511 293.205 526.84 293.057C516.316 292.191 500.075 291.882 489.52 292.291C486.398 292.412 485.723 298.351 487.599 298.126Z" fill="#89C5CC"/>
<path fill-rule="evenodd" clip-rule="evenodd" d="M534.98 350.469C535.07 339.437 535.466 328.33 536.314 317.331C536.659 312.847 537.074 308.37 537.417 303.887C537.579 301.775 538.329 298.817 537.088 296.964C535.809 295.055 533.003 294.658 531.312 296.35C529.288 298.97 529.876 303.367 529.624 306.537C529.237 311.41 528.77 316.28 528.537 321.164C528.088 330.617 527.983 340.234 528.743 349.673C529.102 354.127 529.879 358.473 530.914 362.817C531.385 364.795 535.132 373.603 534.345 374.818C533.124 376.702 524.099 375.99 522.141 376.042C517.117 376.177 512.092 376.265 507.067 376.361C502.765 376.443 498.463 376.502 494.16 376.54C492.452 376.555 482.414 376.251 484.641 378.784C459.741 380.519 434.366 377.622 409.618 376.629C408.368 376.578 406.323 376.224 404.435 376.121C404.209 375.21 404.023 374.395 403.977 373.828C403.652 369.851 403.567 365.86 403.214 361.884C402.569 354.609 401.318 347.407 400.574 340.144C399.831 332.889 399.906 325.612 399.473 318.339C399.399 317.093 399.224 306.885 396.648 304.405C397.869 304.868 399.839 304.928 400.973 304.836C410.153 304.096 419.266 302.501 428.368 301.131C430.972 300.74 436.881 301.017 439.041 299.716C440.91 298.589 441.65 294.638 438.398 294.958C429.322 295.93 420.296 297.439 411.292 298.924C408.883 299.321 406.481 299.746 404.079 300.181C402.475 300.47 398.241 300.448 396.997 301.415C395.486 302.589 395.326 303.388 395.838 303.919C395.126 303.723 394.273 304.031 393.248 305.056C391.31 307.578 393.132 313.789 393.363 316.746C393.64 320.293 393.777 323.846 393.938 327.399C394.25 334.275 394.97 341.056 396.076 347.85C397.316 355.46 398.371 363.102 399.614 370.71C399.937 372.691 400.359 374.623 400.898 376.537C397.549 378.25 399.826 380.973 402.481 381.456C402.5 381.46 402.52 381.463 402.539 381.466C403.367 383.485 404.525 385.355 405.429 382.65C405.498 382.443 405.531 382.187 405.539 381.9C412.398 382.676 419.938 382.194 426.691 382.47C441.319 383.068 456.037 383.965 470.68 383.51C476.477 383.33 482.291 382.815 488.039 382.042C491.407 381.589 494.788 381.048 498.102 380.297C498.339 380.244 498.7 380.187 499.117 380.118C499.185 380.116 499.254 380.115 499.318 380.114C504.393 380.037 509.463 379.901 514.533 379.69C518.789 379.513 523.064 379.423 527.306 379.021C529.941 378.772 535.51 378.818 537.127 376.168C538.598 373.759 536.139 367.552 535.79 364.846C535.176 360.08 534.941 355.27 534.98 350.469Z" fill="#C1DEE2"/>
<path fill-rule="evenodd" clip-rule="evenodd" d="M483.556 318.614C479.501 318.961 475.752 320.865 471.66 320.889C468.225 320.909 464.844 319.882 461.39 320.034C457.339 320.21 455.11 322.83 451.562 323.707C448.737 324.404 446.957 322.242 444.472 321.285C441.335 320.077 439.017 320.701 436.328 322.528C434.352 323.871 429.744 326.884 429.78 329.599C429.886 337.825 439.483 326.462 441.417 326.324C443.988 326.141 446.86 329.071 449.595 329.238C453.211 329.46 455.529 327.129 458.859 326.279C462.226 325.42 465.866 326.473 469.242 326.799C473.093 327.172 476.464 326.313 480.19 325.394C483.801 324.503 486.878 324.55 490.547 325.298C493.023 325.803 499.192 328.739 500.276 324.964C501.751 319.823 486.39 318.373 483.556 318.614Z" fill="#89C5CC"/>
<path fill-rule="evenodd" clip-rule="evenodd" d="M484.79 334.302C476.482 335.109 468.123 335.816 459.777 336.042C456.162 336.141 442.266 334.591 443.498 339.185C444.555 343.123 463.465 340.643 467.317 340.343C471.569 340.013 475.814 339.551 480.046 339.016C481.545 338.826 485.166 339.022 486.224 337.765C487.233 336.565 486.736 334.108 484.79 334.302Z" fill="#89C5CC"/>
<path fill-rule="evenodd" clip-rule="evenodd" d="M427.475 355.221C427.286 355.301 427.286 355.301 427.475 355.221V355.221ZM429.228 355.197C431.299 355.132 430.855 354.04 432.921 354.609C433.874 354.871 433.972 354.482 434.711 355.393C436.152 357.17 434.795 361.039 433.374 362.471C428.113 367.773 421.799 355.433 429.228 355.197ZM429.228 349.996C414.825 350.479 420.851 372.728 433.387 368.187C438.564 366.311 441.818 357.861 438.773 353.112C437.292 350.802 435.403 350.391 432.921 350.231C432.345 350.194 431.62 351.031 431.261 350.993C430.406 350.903 430.486 349.948 429.228 349.996Z" fill="#89C5CC"/>
<path fill-rule="evenodd" clip-rule="evenodd" d="M463.671 355.984C463.414 355.904 468.219 357.301 467.693 356.754C468.815 357.921 467.306 360.68 466.037 361.161C462.964 362.328 461.24 357.549 463.671 355.984ZM465.803 349.951C461.293 350.59 457.813 352.468 457.196 357.483C456.628 362.112 459.755 366.799 464.689 366.89C475.442 367.086 475.769 348.56 465.803 349.951Z" fill="#89C5CC"/>
<path fill-rule="evenodd" clip-rule="evenodd" d="M514.893 356.186C515.522 364.406 506.999 356.882 514.893 356.186V356.186ZM511.235 347.392C510.489 348.666 511.125 350.018 512.25 350.759C502.196 352.884 504.473 368.014 514.704 365.778C519.907 364.642 520.863 359.171 520.088 354.653C519.719 352.505 514.366 342.038 511.235 347.392Z" fill="#89C5CC"/>
</g>
<path opacity="0.5" fill-rule="evenodd" clip-rule="evenodd" d="M552.999 337.33C549.233 337.742 540.328 340.303 540.406 343.053C540.526 347.345 548.094 342.656 549.778 342.026C558.821 338.639 570.534 343.028 579.95 343.962C584.267 344.39 592.713 345.182 596.526 343.401C603.308 340.234 587.624 341.027 585.627 340.899C574.77 340.209 563.969 336.124 552.999 337.33Z" fill="#C1DEE2"/>
<g opacity="0.5">
<path fill-rule="evenodd" clip-rule="evenodd" d="M676.586 316.268C676.583 321.946 676.296 327.742 677.343 333.352C677.66 335.051 677.909 338.304 679.701 339.185C681.501 340.07 683.246 339.076 683.693 337.231C684.215 335.085 683.071 331.872 682.955 329.619C682.796 326.54 682.785 323.458 682.784 320.376C682.783 318.15 683.515 314.569 680.887 313.424C678.934 312.572 676.586 314.156 676.586 316.268Z" fill="#C1DEE2"/>
<path fill-rule="evenodd" clip-rule="evenodd" d="M766.353 307.287C747.541 309.176 728.457 309.568 709.576 310.553C700.849 311.008 690.301 310.427 682.079 313.806C680.552 314.433 675.084 317.925 679.523 319.347C680.907 319.79 682.313 318.299 683.449 317.8C685.341 316.969 687.532 316.712 689.55 316.387C706.706 313.632 724.651 314.112 741.984 312.825C746.425 312.495 750.868 312.155 755.3 311.719C758.467 311.407 765.122 309.125 768.044 310.292C773.037 312.287 772.921 325.247 773.019 329.704C773.071 332.009 770.833 340.283 775.281 339.444C778.84 338.773 777.551 330.177 777.274 327.826C776.546 321.662 775.304 306.38 766.353 307.287Z" fill="#C1DEE2"/>
<path fill-rule="evenodd" clip-rule="evenodd" d="M773.291 339.146C756.95 340.621 740.233 339.173 723.824 339.754C715.224 340.059 706.632 340.543 698.03 340.827C694.31 340.95 690.586 340.955 686.864 340.982C685.084 340.994 676.983 342.073 681.994 345.602C684.213 347.165 691.285 345.906 693.831 345.876C697.656 345.831 701.478 345.672 705.3 345.522C714.152 345.176 722.999 344.696 731.856 344.457C740.328 344.227 748.805 344.178 757.277 343.949C761.492 343.834 765.765 343.705 769.943 343.09C770.886 342.951 773.948 342.84 774.603 341.789C775.222 340.795 774.787 339.002 773.291 339.146Z" fill="#89C5CC"/>
<path fill-rule="evenodd" clip-rule="evenodd" d="M692.979 326.877C692.891 327.085 692.891 327.085 692.979 326.877V326.877ZM700.055 324.726C700.313 324.836 700.313 324.836 700.055 324.726V324.726ZM699.724 324.666C703.537 328.554 697.673 333.193 694.1 329.4C690.309 325.374 697.269 324.679 699.724 324.666ZM695.679 318.786C682.544 321.123 687.194 338.63 699.463 336.099C704.849 334.989 707.929 329.563 706.075 324.351C705.351 322.315 703.772 320.08 701.574 319.438C700.477 319.118 699.508 319.621 698.464 319.504C697.468 319.391 696.915 318.563 695.679 318.786Z" fill="#C1DEE2"/>
<path fill-rule="evenodd" clip-rule="evenodd" d="M745.95 323.713C738.029 323.738 730.107 324.075 722.187 324.225C719.758 324.271 713.514 323.183 713.505 327.013C713.494 331.105 720.449 329.594 722.763 329.539C730.619 329.351 738.495 329.007 746.319 328.259C748.295 328.07 755.138 328.396 755.131 325.708C755.123 322.86 747.546 323.713 745.95 323.713Z" fill="#C1DEE2"/>
<path fill-rule="evenodd" clip-rule="evenodd" d="M764.869 350.421C745.279 350.947 725.718 351.13 706.143 352.133C698.822 352.508 691.51 352.787 684.178 352.787C682.766 352.787 679.922 352.24 678.593 353.129C674.986 355.541 679.093 357.612 681.444 357.742C697.525 358.635 713.838 356.413 729.909 355.912C739.317 355.619 748.728 355.532 758.131 355.053C760.696 354.923 763.262 354.771 765.823 354.572C767.296 354.458 771.191 354.771 772.381 353.91C777.579 350.148 766.621 350.374 764.869 350.421Z" fill="#89C5CC"/>
<path fill-rule="evenodd" clip-rule="evenodd" d="M674.986 360C674.801 365.079 674.782 370.07 675.447 375.121C675.708 377.108 675.828 379.364 678.158 379.869C680.274 380.327 681.347 378.727 681.785 376.953C682.855 372.62 681.914 366.384 681.901 361.883C681.896 359.657 681.893 357.166 679.143 356.663C677.045 356.279 675.066 357.795 674.986 360Z" fill="#89C5CC"/>
<path fill-rule="evenodd" clip-rule="evenodd" d="M785.634 372.245C753.922 373.916 722.252 375.375 690.518 376.716C688.043 376.821 668.817 376.612 675.538 383.316C677.614 385.387 682.963 383.985 685.648 383.853C689.682 383.655 693.719 383.503 697.754 383.298C713.75 382.484 729.788 382.264 745.773 381.35C754.57 380.847 763.346 380.06 772.097 379.036C776.259 378.549 781.426 378.599 785.324 376.968C787.33 376.129 789.494 372.04 785.634 372.245Z" fill="#89C5CC"/>
<path fill-rule="evenodd" clip-rule="evenodd" d="M767.4 346.48C764.988 348.882 766.228 353.62 766.41 356.589C766.66 360.674 766.964 364.762 767.474 368.825C767.806 371.464 767.63 375.572 769.038 377.851C770.687 380.521 774.317 380.226 775.808 377.646C777.127 375.365 776.459 370.566 776.425 368.038C776.378 364.542 776.16 361.041 775.953 357.553C775.779 354.637 776.44 349.964 774.836 347.469C773.206 344.933 769.66 344.232 767.4 346.48Z" fill="#89C5CC"/>
<path fill-rule="evenodd" clip-rule="evenodd" d="M694.917 365.119C694.634 365.337 694.634 365.337 694.917 365.119V365.119ZM700.549 364.413C705.805 365.47 697.307 371.606 694.621 367.395C694.202 366.737 693.983 365.928 694.657 365.356C695.271 364.834 695.658 365.758 696.238 365.51C697.238 365.082 699.482 364.373 700.549 364.413ZM699.824 359.375C696.236 359.659 691.303 359.881 689.527 363.478C687.141 368.309 691.221 373.041 695.942 373.776C700.485 374.483 707.267 371.967 707.631 366.669C707.924 362.397 703.861 359.048 699.824 359.375Z" fill="#89C5CC"/>
<path fill-rule="evenodd" clip-rule="evenodd" d="M729.781 361.93C726.066 361.99 718.765 360.892 715.529 362.702C712.327 364.494 713.755 367.684 716.676 368.447C718.607 368.952 721.763 368.138 723.773 368.056C726.418 367.948 729.064 367.925 731.711 367.889C736.161 367.829 740.609 367.879 745.06 367.879C749.605 367.879 754.229 368.003 758.766 367.669C764.508 367.247 764.353 362.948 758.738 362.41C749.2 361.497 739.35 361.78 729.781 361.93Z" fill="#89C5CC"/>
<path fill-rule="evenodd" clip-rule="evenodd" d="M720.293 410.08C720.293 412.122 722.105 410.08 722.092 410.08C722.105 410.08 720.293 408.037 720.293 410.08Z" fill="#89C5CC"/>
<path fill-rule="evenodd" clip-rule="evenodd" d="M679.297 393.637C679.414 399.574 679.491 405.517 679.744 411.45C679.825 413.326 679.287 416.989 681.561 417.946C684.092 419.01 684.879 416.357 685.171 414.559C686.094 408.862 685.189 402.358 685.1 396.594C685.07 394.659 685.489 391.965 683.291 391C681.498 390.213 679.261 391.674 679.297 393.637Z" fill="#89C5CC"/>
<path fill-rule="evenodd" clip-rule="evenodd" d="M776.935 393.73C777.085 394.084 777.085 394.084 776.935 393.73V393.73ZM777.147 393.67C777.269 393.721 777.76 393.927 777.147 393.67V393.67ZM729.183 388.871C720.069 389.014 710.948 389.122 701.839 389.512C697.952 389.679 694.019 389.814 690.145 390.18C687.401 390.44 680.585 390.548 678.805 392.79C675.132 397.419 682.92 396.156 684.598 395.781C687.651 395.096 690.767 394.877 693.886 394.712C700.653 394.356 707.423 394.165 714.199 394.028C732.574 393.659 750.962 393.715 769.34 393.632C771.119 393.624 774.335 392.908 775.978 393.628C777.625 394.35 777.532 396.123 777.703 398.182C777.93 400.922 776.123 406.143 777.5 408.448C779.636 412.023 782.742 408.987 783.217 406.381C783.873 402.78 782.833 398.456 781.815 395.014C780.379 390.157 778.385 389.964 773.688 389.584C768.199 389.141 762.731 388.872 757.224 388.821C747.879 388.735 738.528 388.726 729.183 388.871Z" fill="#89C5CC"/>
<path fill-rule="evenodd" clip-rule="evenodd" d="M765.234 413.414C745.464 415.71 725.132 414.357 705.257 414.438C700.424 414.458 695.587 414.497 690.758 414.731C688.208 414.855 682.163 414.152 680.415 416.119C676.732 420.266 683.367 420.87 685.789 420.698C690.686 420.35 695.594 420.191 700.504 420.153C717.796 420.019 735.187 420.826 752.465 419.973C759.704 419.616 766.781 418.377 773.886 416.994C775.46 416.687 786.235 414.639 780.091 412.183C776.46 410.732 769.048 412.969 765.234 413.414Z" fill="#89C5CC"/>
<path fill-rule="evenodd" clip-rule="evenodd" d="M707.512 405.822C707.374 405.999 707.374 405.999 707.512 405.822V405.822ZM707.38 405.791C707.333 405.918 707.187 406.232 707.38 405.791V405.791ZM706.133 404.183C706.161 404.22 706.279 404.371 706.133 404.183V404.183ZM706.085 404.171C706.561 404.739 706.881 405.373 707.046 406.072C702.95 407.182 701.372 403.868 706.085 404.171ZM705.825 404.016C705.827 404.017 706.403 404.259 705.825 404.016V404.016ZM699.097 399.079C696.446 402.38 694.257 406.227 697.563 409.998C700.518 413.37 706.463 413.805 710.214 411.554C714.077 409.235 713.744 404.352 711.048 401.165C709.313 399.113 707.907 399.17 705.389 398.835C703.675 398.607 700.551 397.274 699.097 399.079Z" fill="#89C5CC"/>
<path fill-rule="evenodd" clip-rule="evenodd" d="M726.5 405.189C726.5 409.585 745.481 407.693 748.858 407.688C751.687 407.684 768.79 409.244 767.563 404.721C766.554 401.004 749.707 402.851 746.119 402.846C743.018 402.841 726.5 400.712 726.5 405.189Z" fill="#89C5CC"/>
</g>
<g opacity="0.5">
<path fill-rule="evenodd" clip-rule="evenodd" d="M478.7 446.376C488.206 447.756 498.094 452.227 498.011 463.292C497.941 472.595 490.138 482.496 480.119 481.94C471.102 481.441 462.612 471.58 461.483 463.13C460.898 458.752 461.993 454.039 464.568 450.437C467.942 445.719 473.296 445.726 478.7 446.376ZM474.21 440.362C467.334 440.399 462.304 442.886 458.049 448.136C456.523 450.018 454.748 452.044 453.586 454.177C452.501 456.169 452.691 461.234 456.415 458.859C455.498 468.665 461.229 478.182 469.467 483.207C478.422 488.669 488.544 487.604 495.997 479.948C502.819 472.94 505.22 461.103 500.229 452.436C495.241 443.774 483.683 440.269 474.21 440.362Z" fill="#89C5CC"/>
<path fill-rule="evenodd" clip-rule="evenodd" d="M494.826 437.734C490.424 440.96 486.405 445.208 483.067 449.517C479.804 453.729 477.647 458.987 473.727 462.66C471.748 460.504 469.429 454.681 465.48 456.991C462.203 458.908 464.313 462.205 465.909 464.369C470.03 469.958 474.606 472.208 479.891 466.686C484.691 461.671 487.417 454.98 491.905 449.677C493.873 447.35 496.915 445.04 498.482 442.471C499.903 440.142 498.146 435.294 494.826 437.734Z" fill="#89C5CC"/>
</g>
<g opacity="0.5">
<path fill-rule="evenodd" clip-rule="evenodd" d="M661.175 87.8777C661.182 88.3175 661.188 88.7313 661.198 89.1116C661.403 97.416 661.284 106.146 660.609 114.431C660.376 117.292 658.295 120.917 655.921 116.974C654.878 115.24 655.024 111.68 655.131 109.061C655.16 108.358 655.186 107.724 655.186 107.21C655.184 104.288 655.337 101.336 655.491 98.3753C655.792 92.588 656.095 86.7703 655.238 81.0864C655.221 80.9713 655.204 80.8607 655.189 80.7542C654.816 78.2547 654.791 78.082 652.042 78.1388C650.896 78.1626 649.751 78.1936 648.605 78.2246C647.478 78.255 646.351 78.2855 645.224 78.3091C644.104 78.3326 642.985 78.3542 641.866 78.3757C638.356 78.4432 634.846 78.5107 631.338 78.6392C630.752 78.6608 629.659 78.7978 628.281 78.9707C625.524 79.3164 621.624 79.8056 618.342 79.8028C618.343 79.8169 618.344 79.8311 618.345 79.8452C618.347 79.8705 618.349 79.896 618.349 79.9218C618.386 81.7338 617.919 83.7564 617.451 85.7884C617.058 87.4902 616.664 89.1985 616.563 90.7951C616.322 94.5942 616.319 98.4335 616.317 102.273C616.313 106.948 616.31 111.623 615.877 116.225C615.856 116.45 615.843 116.687 615.83 116.927C615.829 116.959 615.827 116.991 615.825 117.023C615.974 117 616.118 116.984 616.257 116.975C618.623 116.825 621.008 116.812 623.39 116.798C624.704 116.791 626.016 116.784 627.324 116.753C629.671 116.699 632.048 116.702 634.434 116.704C639.701 116.71 645.015 116.716 650.167 116.109C651.689 115.912 652.221 117.863 651.538 118.875C650.927 119.781 649.244 119.928 648.012 120.035C647.699 120.063 647.415 120.087 647.185 120.121C643.862 120.613 640.495 120.785 637.142 120.934C633.621 121.09 630.096 121.206 626.573 121.304C625.734 121.328 624.615 121.441 623.374 121.566C620.098 121.897 615.972 122.314 613.925 121.388C611.724 120.392 611.776 119.287 612.674 118.431C612.28 117.564 612.218 116.299 612.169 115.309C612.151 114.931 612.134 114.593 612.102 114.333C611.614 110.392 611.319 106.501 611.312 102.526C611.298 94.7397 611.314 86.6529 613.468 79.1159C612.605 78.7382 612.085 78.1814 612.087 77.3788C612.097 73.3351 624.683 73.5409 630.665 73.6387C631.735 73.6562 632.593 73.6702 633.131 73.6559C637.489 73.542 641.848 73.5272 646.207 73.5508C647.128 73.5557 648.153 73.4955 649.215 73.433C651.474 73.3002 653.901 73.1576 655.852 73.611C660.978 74.801 661.101 82.9646 661.175 87.8777Z" fill="#89C5CC"/>
<path fill-rule="evenodd" clip-rule="evenodd" d="M693.235 74.4973C697.994 74.2455 702.756 74.1876 707.521 74.17C712.566 74.1446 717.618 74.2353 722.661 74.3904L722.778 74.3939C725.012 74.461 737.432 74.834 731.726 77.929C731.394 78.1096 731.019 78.2605 730.61 78.3857C730.852 79.8188 730.881 81.2985 730.842 82.0113C730.695 84.7145 730.598 87.4206 730.501 90.1267C730.435 91.9607 730.369 93.7946 730.287 95.6275C730.063 100.692 729.849 105.757 729.675 110.824C729.653 111.446 729.686 112.259 729.723 113.166C729.844 116.163 730.007 120.18 728.379 121.665C726.95 122.968 725.974 122.707 725.316 121.821C721.228 123.009 712.832 122.623 708.611 122.429C707.593 122.382 706.819 122.346 706.405 122.346C705.665 122.347 704.289 122.439 702.553 122.556C695.324 123.041 681.829 123.948 681.802 120.384C681.799 120.041 681.91 119.734 682.12 119.458C681.547 118.874 681.032 118.016 680.701 116.945C679.513 113.101 679.401 108.954 679.313 104.968C679.188 99.3397 679.187 93.705 679.186 88.0715C679.185 85.1783 679.184 82.2853 679.167 79.3938C678.394 78.356 678.853 77.169 679.817 76.3409C681.87 74.5789 686.966 74.5576 690.652 74.5422C691.644 74.5381 692.534 74.5344 693.235 74.4973ZM685.491 117.895C690.078 116.916 697.807 117.231 701.947 117.4C703.032 117.444 703.87 117.478 704.342 117.476C708.571 117.46 712.801 117.519 717.027 117.688C717.465 117.705 718.113 117.689 718.877 117.669C720.412 117.631 722.412 117.58 724.111 117.769C724.088 117.538 724.073 117.328 724.064 117.146C723.873 113.384 724.011 109.59 724.147 105.817V105.817C724.176 105.015 724.205 104.214 724.231 103.415C724.322 100.594 724.442 97.7745 724.563 94.9549L724.563 94.9547L724.563 94.9533C724.639 93.1783 724.714 91.4032 724.783 89.6278C724.813 88.8487 724.768 87.7905 724.718 86.5999V86.5998C724.616 84.1775 724.49 81.2075 724.924 78.9264C723.359 78.8967 721.756 78.7858 720.285 78.6841C718.869 78.5861 717.575 78.4966 716.558 78.4965C715.268 78.4964 713.979 78.4924 712.689 78.4884H712.689H712.689H712.689C709.115 78.4775 705.543 78.4665 701.969 78.5372C701.631 78.5439 701.292 78.5505 700.952 78.557L700.952 78.557L700.952 78.557C696.032 78.6519 691.07 78.7476 686.191 79.3958C685.905 79.4339 685.562 79.5072 685.181 79.5962C685.716 81.8318 685.454 84.9826 685.225 87.7421C685.113 89.0824 685.009 90.3304 685.008 91.3363C685.001 97.5922 685.166 103.823 685.331 110.048L685.331 110.049L685.331 110.049C685.394 112.404 685.456 114.757 685.509 117.111C685.516 117.392 685.509 117.653 685.491 117.895Z" fill="#89C5CC"/>
<path fill-rule="evenodd" clip-rule="evenodd" d="M633.284 121.123C630.157 122.95 631.843 130.259 632.927 132.786C634.708 136.942 638.322 140.195 642.222 142.352C650.104 146.712 661.466 145.554 667.427 153.114C667.489 153.192 669.549 155.232 670.018 152.59C670.403 150.422 666.557 147.111 665.066 146.024C660.827 142.934 655.391 141.938 650.488 140.394C645.259 138.748 639.521 135.713 637.328 130.322C636.552 128.413 638.032 118.336 633.284 121.123Z" fill="#C1DEE2"/>
<path fill-rule="evenodd" clip-rule="evenodd" d="M704.78 124.637C701.914 125.427 703.809 129.371 703.804 131.346C703.799 133.809 703.011 136.387 701.493 138.353C697.643 143.339 690.104 144.086 684.452 145.515C680.348 146.554 670.529 148.78 670.145 154.331C669.716 160.529 678.385 152.986 679.117 152.677C687.219 149.705 697.701 149.131 703.955 142.589C706.537 139.888 708.062 136.284 708.305 132.564C708.441 130.469 708.465 123.63 704.78 124.637Z" fill="#C1DEE2"/>
<path fill-rule="evenodd" clip-rule="evenodd" d="M645.561 179.616C645.494 168.148 656.469 161.21 666.394 158.601C678.322 155.458 689.434 163.816 690.84 175.84C692.324 188.529 682.761 198.744 670.149 199.304C659.055 199.796 645.632 191.853 645.561 179.616ZM672.207 164.115C672.852 164.992 673.435 166.392 672.135 167.154C670.885 167.883 670.26 167.007 669.632 166.125C669.234 165.568 668.835 165.009 668.276 164.851C666.826 164.443 664.496 165.968 663.288 166.857C662.798 167.218 662.1 167.995 661.284 168.904C658.688 171.795 654.898 176.017 652.802 172.384C644.446 186.813 665.278 197.612 677.124 192.151C690.134 186.154 687.602 164.229 672.207 164.115Z" fill="#89C5CC"/>
<path fill-rule="evenodd" clip-rule="evenodd" d="M661.289 175.777C661.289 178.409 665.446 178.409 665.446 175.777C665.446 173.174 661.289 173.063 661.289 175.777Z" fill="#89C5CC"/>
<path fill-rule="evenodd" clip-rule="evenodd" d="M668.603 175.282C668.603 178.507 673.697 178.507 673.697 175.282C673.697 172.095 668.603 171.959 668.603 175.282Z" fill="#89C5CC"/>
<path fill-rule="evenodd" clip-rule="evenodd" d="M663.369 182.796C659.203 185.246 671.117 190.115 671.587 185.14C671.79 182.993 669.711 183.572 668.325 183.414C666.999 183.263 664.627 182.064 663.369 182.796Z" fill="#89C5CC"/>
<path fill-rule="evenodd" clip-rule="evenodd" d="M661.562 200.181C661.743 206.44 661.656 212.695 662.843 218.867C663.069 220.039 663.225 224.291 664.152 225.162C666.431 227.304 666.468 223.198 666.557 221.625C666.873 215.99 666.281 210.179 666.151 204.532C666.122 203.316 666.445 200.799 665.871 199.622C664.961 197.754 661.473 197.2 661.562 200.181Z" fill="#C1DEE2"/>
<path fill-rule="evenodd" clip-rule="evenodd" d="M657.106 195.107C647.973 205.357 635.396 204.602 622.726 205.5C616.032 205.974 609.263 206.948 603.876 211.278C601.37 213.293 599.21 215.816 597.758 218.691C597.124 219.948 594.114 227.202 598.634 225.481C600.237 224.871 601.816 220.074 602.852 218.655C604.827 215.953 607.354 213.722 610.385 212.272C616.232 209.475 623.214 209.523 629.554 209.168C636.181 208.797 643.294 208.45 649.386 205.568C652.252 204.213 654.94 202.522 657.247 200.343C658.071 199.564 659.838 198.241 659.969 197.05C660.12 195.689 658.812 193.197 657.106 195.107Z" fill="#C1DEE2"/>
<path fill-rule="evenodd" clip-rule="evenodd" d="M611 226.57C602.421 226.856 593.852 227.203 585.285 227.746C583.53 227.857 577.676 227.502 579.167 231.1C580.362 233.983 587.501 232.076 589.862 231.936C598.789 231.406 607.753 231.222 616.662 230.419C618.663 230.239 627.709 230.311 623.973 226.764C622.196 225.076 613.455 226.486 611 226.57Z" fill="#89C5CC"/>
<path fill-rule="evenodd" clip-rule="evenodd" d="M573.72 230.707C571.015 234.259 572.258 242.891 572.462 247.161C572.66 251.298 571.856 258.863 577.257 259.505C575.542 259.28 578.559 259.609 579.05 259.635C580.146 259.694 581.248 259.713 582.346 259.725C584.883 259.753 587.421 259.719 589.957 259.668C595.702 259.554 601.462 259.386 607.2 259.069C609.612 258.935 622.696 259.047 623.214 256.541C623.876 253.339 611.331 255.151 609.085 255.253C603.616 255.504 598.138 255.557 592.664 255.628C589.951 255.664 587.235 255.691 584.522 255.638C583.401 255.616 578.965 256.076 578.284 255.328C577.703 254.692 578.156 248.842 578.144 247.947C578.104 245.03 578.107 242.107 578.211 239.191C578.281 237.228 579.342 233.493 578.478 231.649C577.636 229.856 575.185 229.244 573.72 230.707Z" fill="#89C5CC"/>
<path fill-rule="evenodd" clip-rule="evenodd" d="M617.895 230.873C618.052 237.371 618.1 243.999 619.635 250.354C620.146 252.468 620.861 256.829 622.986 257.924C625.215 259.073 627.141 257.433 627.286 255.223C627.47 252.446 625.983 248.799 625.678 245.949C625.321 242.624 625.114 239.296 624.992 235.954C624.9 233.441 625.664 229.673 623.268 228.053C621.116 226.597 617.825 228.063 617.895 230.873Z" fill="#89C5CC"/>
<path fill-rule="evenodd" clip-rule="evenodd" d="M634.968 229.287C632.3 231.945 633.492 240.36 633.826 243.775C634.07 246.276 636.808 258.58 640.91 252.164C642.725 249.326 640.419 241.821 640.436 238.511C640.446 236.403 641.192 233.738 640.832 231.713C640.356 229.037 637.388 226.87 634.968 229.287Z" fill="#89C5CC"/>
<path fill-rule="evenodd" clip-rule="evenodd" d="M653.443 227.093C661.457 226.266 669.481 225.646 677.539 225.569C677.926 225.566 678.333 225.561 678.756 225.556C684.279 225.486 692.579 225.38 696.296 229.528C698.321 231.787 699.238 235.28 700.038 238.325C700.187 238.892 700.332 239.445 700.479 239.971C700.605 240.42 700.769 240.932 700.946 241.486C701.781 244.1 702.91 247.637 701.765 249.826C701.137 251.027 700.126 252.051 698.591 251.626C698.233 251.526 697.952 251.399 697.731 251.249C698.319 251.885 698.58 252.792 698.198 253.678C697.46 255.392 695.128 255.429 693.291 255.457C692.846 255.464 692.429 255.471 692.072 255.501C685.953 256.011 679.806 256.351 673.666 256.405C670.742 256.43 667.818 256.406 664.894 256.383C661.885 256.358 658.875 256.333 655.866 256.363C653.681 256.384 651.457 256.592 649.231 256.8C646.422 257.062 643.611 257.324 640.878 257.212C638.834 257.128 636.651 256.459 637.169 253.817C637.592 251.66 639.622 251.472 641.441 251.303C641.599 251.289 641.756 251.274 641.91 251.258C647.702 250.669 653.498 250.46 659.32 250.481C671.551 250.523 683.773 250.46 696.003 250.396C696.506 250.438 696.979 250.63 697.369 250.922C696.929 250.388 696.937 249.676 696.947 248.919C696.951 248.576 696.955 248.223 696.918 247.874C696.843 247.171 696.774 246.471 696.706 245.772C696.48 243.463 696.256 241.171 695.815 238.849C695.749 238.498 695.685 238.112 695.617 237.704C695.216 235.293 694.686 232.098 692.769 230.796C690.841 229.487 687.061 229.55 684.115 229.599C683.32 229.612 682.585 229.624 681.964 229.608C674.103 229.405 666.197 229.964 658.371 230.675C657.77 230.73 657.168 230.782 656.565 230.835C653.588 231.094 650.595 231.355 647.661 231.887C647.124 231.985 646.304 232.271 645.363 232.6C642.86 233.473 639.503 234.644 638.362 233.354C634.584 229.081 651.188 227.326 653.443 227.093Z" fill="#89C5CC"/>
<path fill-rule="evenodd" clip-rule="evenodd" d="M738.707 217.363C739.056 217.811 739.056 217.811 738.707 217.363V217.363ZM684.473 190.887C679.605 193.748 688.614 202.143 690.909 203.441C696.073 206.363 703.17 206.804 708.936 207.625C716.234 208.666 724.176 209.049 731.19 211.44C734.179 212.459 736.077 214.049 738.034 216.493C739.025 217.732 741.413 223.069 743.587 221.805C747.964 219.261 736.169 208.583 733.57 207.435C727.662 204.825 720.678 204.094 714.361 203.081C708.487 202.138 702.486 201.437 696.757 199.775C693.607 198.862 691.368 197.388 689.552 194.567C688.42 192.809 687.492 189.121 684.473 190.887Z" fill="#C1DEE2"/>
<path fill-rule="evenodd" clip-rule="evenodd" d="M759.091 223.681C753.479 223.806 747.878 224.238 742.278 224.669C739.136 224.911 735.995 225.153 732.853 225.341C731.87 225.4 730.886 225.453 729.902 225.506L729.902 225.506L729.902 225.506C727.133 225.655 724.361 225.804 721.606 226.083C721.188 226.125 720.703 226.165 720.174 226.208C717.834 226.4 714.644 226.662 712.605 227.516C710.736 226.102 707.851 227.304 707.806 229.824C707.729 234.414 707.771 238.923 708.331 243.485C708.461 244.544 709.13 249.905 710.586 252.696C710.068 255.332 712.315 256.07 714.406 256.272C722.506 257.054 730.999 256.447 739.378 255.849C743.639 255.544 747.871 255.242 752.006 255.125C753.381 255.086 754.774 255.071 756.175 255.055C760.747 255.004 765.407 254.952 769.833 254.087C770.011 254.052 770.202 254.018 770.402 253.982C772.152 253.669 774.565 253.236 774.749 251.31C774.859 250.154 774.207 249.096 773.116 248.947C773.191 247.984 773.07 246.933 772.981 246.161L772.981 246.161C772.96 245.981 772.941 245.816 772.927 245.671C772.661 242.993 771.994 240.332 771.335 237.705L771.335 237.705L771.335 237.705C771.187 237.114 771.04 236.525 770.897 235.939C770.739 235.289 770.593 234.515 770.435 233.682C769.879 230.739 769.179 227.042 767.32 225.325C765.369 223.525 762.194 223.604 759.65 223.668C759.46 223.673 759.273 223.678 759.091 223.681ZM768.966 249.235C768.301 247.493 768.106 245.138 767.921 242.899V242.899C767.805 241.494 767.692 240.134 767.47 239.001C767.302 238.151 767.165 237.255 767.026 236.344L767.026 236.344C766.688 234.131 766.337 231.832 765.506 229.893C764.394 227.296 763.404 227.395 761.062 227.63C760.627 227.674 760.144 227.722 759.606 227.759C757.219 227.921 754.834 228.127 752.45 228.334L752.45 228.334C751.306 228.433 750.162 228.532 749.018 228.626C744.122 229.028 739.223 229.338 734.324 229.647L734.324 229.647C731.462 229.828 728.599 230.008 725.737 230.208C723.491 230.364 721.298 230.791 719.115 231.216C717.386 231.553 715.662 231.889 713.922 232.088C713.897 232.683 713.847 233.28 713.799 233.849C713.734 234.624 713.674 235.346 713.687 235.937C713.744 238.559 713.975 241.164 714.207 243.774C714.243 244.175 714.278 244.576 714.313 244.978C714.355 245.459 714.459 246.077 714.574 246.763C714.751 247.824 714.956 249.046 715.001 250.171C715.213 250.17 715.424 250.171 715.631 250.171C715.899 250.172 716.162 250.173 716.415 250.169C722.583 250.061 728.747 249.874 734.912 249.637C735.699 249.607 736.486 249.576 737.273 249.546C742.773 249.332 748.273 249.117 753.778 249.054C755.965 249.029 758.18 249.098 760.403 249.167C763.262 249.255 766.132 249.344 768.966 249.235Z" fill="#89C5CC"/>
</g>
</svg>
