<svg width="300" height="300" viewBox="0 0 300 300" fill="none" xmlns="http://www.w3.org/2000/svg">
<rect x="0.5" y="0.5" width="299" height="299" fill="#FAFAFA" stroke="black"/>
<path d="M122.716 112.803C122.716 121.012 125.046 125.394 129.705 125.949C129.372 127.502 128.096 128.278 125.878 128.278C121.329 128.278 118.112 125.505 116.226 119.958C115.339 117.407 114.895 114.301 114.895 110.64C114.895 106.868 116.337 102.375 119.222 97.1616C125.767 85.0699 137.637 77.3045 154.831 73.8656C160.711 72.7563 166.978 72.2016 173.634 72.2016C180.401 72.2016 186.17 71.536 190.94 70.2048C195.71 68.8736 198.983 67.376 200.758 65.712C205.417 61.3856 208.856 59.2224 211.074 59.2224C213.293 59.2224 214.402 59.888 214.402 61.2192C214.402 61.552 214.402 61.8848 214.402 62.2176C213.626 65.3237 210.298 68.2635 204.418 71.0368C200.869 72.5899 196.875 73.8101 192.438 74.6976C188.777 76.2507 185.726 80.5216 183.286 87.5104C180.845 94.3883 178.294 104.372 175.631 117.462C181.4 116.908 186.17 116.63 189.942 116.63C190.94 116.63 191.384 117.241 191.273 118.461C190.829 119.792 189.664 120.513 187.778 120.624C185.893 120.624 181.511 121.179 174.633 122.288C169.419 148.025 164.871 166.218 160.988 176.867C151.226 203.824 137.304 217.302 119.222 217.302C106.242 217.302 98.1444 211.367 94.9273 199.498C93.707 195.393 93.0969 191.289 93.0969 187.184C93.0969 179.419 95.1492 171.653 99.2537 163.888C105.466 152.018 113.62 146.083 123.714 146.083C125.157 146.083 126.321 146.416 127.209 147.082C128.207 147.747 128.873 148.746 129.206 150.077C119.665 150.077 111.789 155.013 105.577 164.886C100.696 172.541 98.2553 180.473 98.2553 188.682C98.2553 200.662 102.471 207.984 110.902 210.646C112.898 211.201 115.505 211.478 118.722 211.478C121.94 211.478 125.323 210.535 128.873 208.65C132.534 206.875 135.806 203.547 138.69 198.666C141.686 193.895 144.126 189.902 146.012 186.685C147.898 183.357 150.061 177.477 152.502 169.046C155.386 158.73 157.826 149.189 159.823 140.426C161.82 131.551 163.04 126.226 163.484 124.451C157.272 125.45 152.557 125.949 149.34 125.949C146.234 125.949 144.459 124.562 144.015 121.789C143.904 119.57 144.514 118.294 145.846 117.962C146.4 118.627 148.12 118.96 151.004 118.96C153.999 118.96 158.658 118.683 164.982 118.128C167.755 107.257 170.417 98.4373 172.969 91.6704C175.52 84.7925 178.516 79.5787 181.954 76.0288C180.18 76.1397 177.406 76.1952 173.634 76.1952C152.335 76.1952 137.415 82.4629 128.873 94.9984C124.768 100.878 122.716 106.813 122.716 112.803ZM195.932 146.915C195.932 147.47 195.433 147.747 194.434 147.747C193.436 147.747 192.438 147.525 191.439 147.082C190.552 146.638 190.108 146.028 190.108 145.251C190.108 133.936 191.384 124.839 193.935 117.962C196.487 110.973 199.87 107.478 204.086 107.478C205.195 107.478 206.138 107.867 206.914 108.643C207.691 109.42 208.079 110.474 208.079 111.805C203.087 116.797 199.482 124.229 197.263 134.102C196.376 138.207 195.932 142.478 195.932 146.915Z" fill="black"/>
</svg>
