<svg width="79" height="50" viewBox="0 0 79 50" fill="none" xmlns="http://www.w3.org/2000/svg">
<path fill-rule="evenodd" clip-rule="evenodd" d="M78.9583 0.840277C78.9583 1.125 78.868 1.38194 78.6944 1.61806C78.5139 1.84722 78.3264 1.96528 78.1111 1.96528C76.3819 2.13194 74.9583 2.6875 73.8611 3.63889C72.7569 4.58333 71.625 6.39583 70.4514 9.0625L52.5347 49.4375C52.4167 49.8125 52.0903 50 51.5486 50C51.125 50 50.7986 49.8125 50.5625 49.4375L40.5139 28.4236L28.9583 49.4375C28.7222 49.8125 28.3958 50 27.9722 50C27.4583 50 27.1181 49.8125 26.9514 49.4375L9.34722 9.0625C8.25 6.55555 7.09028 4.80556 5.86806 3.8125C4.65278 2.81945 2.95139 2.20139 0.777778 1.96528C0.590278 1.96528 0.409722 1.86806 0.25 1.66667C0.0833334 1.47222 0 1.24306 0 0.986111C0 0.326389 0.1875 0 0.5625 0C2.13194 0 3.77083 0.0694439 5.48611 0.208333C7.07639 0.354166 8.57639 0.423612 9.97917 0.423612C11.4097 0.423612 13.0972 0.354166 15.0417 0.208333C17.0764 0.0694439 18.8819 0 20.4514 0C20.8264 0 21.0139 0.326389 21.0139 0.986111C21.0139 1.63889 20.8958 1.96528 20.6667 1.96528C19.0972 2.08333 17.8611 2.48611 16.9583 3.15972C16.0556 3.84028 15.6042 4.72917 15.6042 5.83333C15.6042 6.39583 15.7917 7.09722 16.1667 7.9375L30.7153 40.7917L38.9722 25.1944L31.2778 9.0625C29.8958 6.1875 28.7569 4.32639 27.8681 3.49305C26.9792 2.66667 25.6319 2.15278 23.8264 1.96528C23.6597 1.96528 23.5069 1.86806 23.3542 1.66667C23.2014 1.47222 23.125 1.24306 23.125 0.986111C23.125 0.326389 23.2847 0 23.6181 0C25.1875 0 26.625 0.0694439 27.9375 0.208333C29.2014 0.354166 30.5486 0.423612 31.9792 0.423612C33.3819 0.423612 34.8681 0.354166 36.4375 0.208333C38.0556 0.0694439 39.6458 0 41.2153 0C41.5903 0 41.7778 0.326389 41.7778 0.986111C41.7778 1.63889 41.6667 1.96528 41.4305 1.96528C38.2917 2.18056 36.7222 3.06944 36.7222 4.63889C36.7222 5.34028 37.0833 6.43056 37.8125 7.90278L42.9028 18.2361L47.9653 8.78472C48.6667 7.45139 49.0208 6.32639 49.0208 5.40972C49.0208 3.25695 47.4514 2.11111 44.3125 1.96528C44.0278 1.96528 43.8889 1.63889 43.8889 0.986111C43.8889 0.75 43.9583 0.527777 44.0972 0.319444C44.2431 0.104166 44.3819 0 44.5208 0C45.6458 0 47.0278 0.0694439 48.6667 0.208333C50.2361 0.354166 51.5278 0.423612 52.5347 0.423612C53.2569 0.423612 54.3264 0.361111 55.7292 0.243056C57.5069 0.0833336 59 0 60.1944 0C60.4722 0 60.6111 0.277777 60.6111 0.840277C60.6111 1.59028 60.3542 1.96528 59.8403 1.96528C58.0139 2.15278 56.5417 2.65972 55.4306 3.47917C54.3194 4.29861 52.9306 6.15972 51.2708 9.0625L44.5208 21.5417L53.6597 40.1597L67.1528 8.78472C67.618 7.63889 67.8542 6.58333 67.8542 5.625C67.8542 3.32639 66.2847 2.11111 63.1458 1.96528C62.8611 1.96528 62.7222 1.63889 62.7222 0.986111C62.7222 0.326389 62.9305 0 63.3542 0C64.5 0 65.8611 0.0694439 67.4305 0.208333C68.8819 0.354166 70.1042 0.423612 71.0833 0.423612C72.118 0.423612 73.3125 0.354166 74.6667 0.208333C76.0764 0.0694439 77.3403 0 78.4653 0C78.7917 0 78.9583 0.277777 78.9583 0.840277Z" fill="black"/>
</svg>
